<svg width="24" height="24" viewBox="0 0 24 24" fill="none" xmlns="http://www.w3.org/2000/svg">
<path d="M18.7925 1.20721H18.3863V0.724808C18.3863 0.324553 18.0445 0 17.6231 0C17.2016 0 16.8599 0.324553 16.8599 0.724808V1.20721H7.14013V0.724808C7.14013 0.324553 6.79839 0 6.37694 0C5.95548 0 5.61374 0.324553 5.61374 0.724808V1.20721H5.21009C2.33708 1.20721 0 3.42673 0 6.15523V19.052C0 21.7805 2.33708 24 5.21009 24H18.7899C21.6629 24 24 21.7805 24 19.052V6.15201C23.9992 3.42593 21.6638 1.20721 18.7925 1.20721ZM5.21009 2.65682H5.61374V3.13922C5.61374 3.53948 5.95548 3.86403 6.37694 3.86403C6.79839 3.86403 7.14013 3.53948 7.14013 3.13922V2.65682H16.8599V3.13922C16.8599 3.53948 17.2016 3.86403 17.6231 3.86403C18.0445 3.86403 18.3863 3.53948 18.3863 3.13922V2.65682H18.7925C20.8217 2.65682 22.4728 4.22483 22.4728 6.15201V7.84967H1.52639V6.15523C1.52639 4.22644 3.17914 2.65682 5.21009 2.65682ZM18.7899 22.5496H5.21009C3.17914 22.5496 1.52639 20.98 1.52639 19.0512V9.29929H22.4728V19.0512C22.4736 20.98 20.8209 22.5496 18.7899 22.5496Z" fill="#263238"/>
<path d="M7.22324 12.8162H6.02841C5.60695 12.8162 5.26521 13.1408 5.26521 13.541C5.26521 13.9413 5.60695 14.2658 6.02841 14.2658H7.22324C7.64469 14.2658 7.98643 13.9413 7.98643 13.541C7.98643 13.1408 7.64469 12.8162 7.22324 12.8162Z" fill="#263238"/>
<path d="M12.5978 12.8162H11.403C10.9816 12.8162 10.6398 13.1408 10.6398 13.541C10.6398 13.9413 10.9816 14.2658 11.403 14.2658H12.5978C13.0193 14.2658 13.361 13.9413 13.361 13.541C13.361 13.1408 13.0193 12.8162 12.5978 12.8162Z" fill="#263238"/>
<path d="M16.7768 14.2658H17.9716C18.393 14.2658 18.7348 13.9413 18.7348 13.541C18.7348 13.1408 18.393 12.8162 17.9716 12.8162H16.7768C16.3553 12.8162 16.0136 13.1408 16.0136 13.541C16.0136 13.9413 16.3553 14.2658 16.7768 14.2658Z" fill="#263238"/>
<path d="M7.22324 17.5838H6.02841C5.60695 17.5838 5.26521 17.9084 5.26521 18.3086C5.26521 18.7089 5.60695 19.0335 6.02841 19.0335H7.22324C7.64469 19.0335 7.98643 18.7089 7.98643 18.3086C7.98643 17.9084 7.64469 17.5838 7.22324 17.5838Z" fill="#263238"/>
<path d="M12.5978 17.5838H11.403C10.9816 17.5838 10.6398 17.9084 10.6398 18.3086C10.6398 18.7089 10.9816 19.0335 11.403 19.0335H12.5978C13.0193 19.0335 13.361 18.7089 13.361 18.3086C13.361 17.9084 13.0193 17.5838 12.5978 17.5838Z" fill="#263238"/>
<path d="M17.9716 17.5838H16.7768C16.3553 17.5838 16.0136 17.9084 16.0136 18.3086C16.0136 18.7089 16.3553 19.0335 16.7768 19.0335H17.9716C18.393 19.0335 18.7348 18.7089 18.7348 18.3086C18.7348 17.9084 18.3939 17.5838 17.9716 17.5838Z" fill="#263238"/>
</svg>
