<svg width="24" height="24" viewBox="0 0 24 24" fill="none" xmlns="http://www.w3.org/2000/svg">
<g clip-path="url(#clip0_3495_5891)">
<path d="M23.8281 24.2187H12.1094C11.8937 24.2187 11.7187 24.0437 11.7187 23.8281C11.7187 23.6125 11.8937 23.4375 12.1094 23.4375H23.4375V1.5625H11.7187C11.5031 1.5625 11.3281 1.3875 11.3281 1.17187C11.3281 0.95625 11.5031 0.78125 11.7187 0.78125H23.8281C24.0437 0.78125 24.2187 0.95625 24.2187 1.17187V23.8281C24.2187 24.0437 24.0437 24.2187 23.8281 24.2187Z" fill="#263238"/>
<path d="M2.95703 24.2189C2.92344 24.2189 2.88906 24.2142 2.85469 24.2048C2.6461 24.1493 2.52344 23.9345 2.57891 23.7267L4.72578 15.7673C4.78203 15.5571 4.99453 15.4345 5.20469 15.4915C5.41328 15.547 5.53594 15.7618 5.48047 15.9696L3.3336 23.9298C3.28672 24.1048 3.12891 24.2189 2.95703 24.2189Z" fill="#263238"/>
<path d="M8.59375 5.46875C7.30156 5.46875 6.25 4.41719 6.25 3.125C6.25 1.83281 7.30156 0.78125 8.59375 0.78125C9.88594 0.78125 10.9375 1.83281 10.9375 3.125C10.9375 4.41719 9.88672 5.46875 8.59375 5.46875ZM8.59375 1.5625C7.73203 1.5625 7.03125 2.26328 7.03125 3.125C7.03125 3.98672 7.73203 4.6875 8.59375 4.6875C9.45547 4.6875 10.1562 3.98672 10.1562 3.125C10.1562 2.26328 9.45625 1.5625 8.59375 1.5625Z" fill="#263238"/>
<path d="M7.0672 15.7585L4.24376 23.7C4.17188 23.9039 4.27735 24.1273 4.48126 24.1992C4.52423 24.2156 4.56876 24.2218 4.61173 24.2218C4.77267 24.2218 4.92267 24.1218 4.9797 23.9625L7.66954 16.3976L7.0672 15.7585Z" fill="#263238"/>
<path d="M10.6 24.2218C10.4172 24.2218 10.2539 24.0929 10.2172 23.907L9.2711 19.0999C9.19922 18.7421 9.02891 18.4117 8.77735 18.1445L5.8875 15.0757C5.36641 14.5234 5.09766 13.7718 5.14922 13.0132L5.43047 8.92729L3.73594 9.4562L3.09454 11.9593C2.9625 12.5585 2.3375 12.9703 1.70235 12.8382C1.06875 12.6968 0.669536 12.0703 0.808598 11.4398L1.59219 8.32963C1.67188 7.97729 1.92188 7.67182 2.26016 7.52338L5.77969 5.95776C5.9586 5.87807 6.15547 5.84448 6.35001 5.86323L9.81875 6.17729C10.6156 6.24995 11.3383 6.66479 11.8016 7.31635L13.3024 9.42807L15.6734 9.14526C15.9703 9.09526 16.2797 9.17417 16.532 9.36088C16.7836 9.54604 16.9484 9.8187 16.9961 10.1281C17.0438 10.4367 16.968 10.7453 16.7828 10.9976C16.5977 11.2499 16.3242 11.4148 16.0149 11.4624L13.0852 12.0031C12.6969 12.0765 12.3031 11.9492 12.0297 11.6656L11.1648 10.771C11.0148 10.6164 11.0188 10.3687 11.1742 10.2187C11.3297 10.0695 11.5766 10.0726 11.7266 10.2281L12.5914 11.1226C12.6828 11.2171 12.8156 11.2609 12.9422 11.2359L15.8852 10.6929C16.0008 10.6749 16.0922 10.6195 16.1539 10.5359C16.2156 10.4523 16.2406 10.3492 16.225 10.2468C16.2086 10.1429 16.1539 10.0523 16.0703 9.98979C15.9859 9.92885 15.8836 9.90463 15.7805 9.9187L13.1664 10.2312C13.0195 10.2523 12.8844 10.1859 12.8016 10.0703L11.1664 7.76948C10.8359 7.30307 10.3195 7.00698 9.75079 6.95542L6.28047 6.64135C6.21875 6.63745 6.15469 6.64604 6.09688 6.67182L2.57579 8.23745C2.4625 8.28667 2.37969 8.38823 2.35235 8.5101L1.56875 11.6187C1.525 11.8179 1.65782 12.0273 1.86875 12.0742C2.06563 12.1187 2.28907 11.9828 2.33438 11.7773L3.0336 9.05073C3.06719 8.91948 3.16641 8.81479 3.29532 8.77417L5.74297 8.0101C5.86563 7.9726 6.00079 7.99682 6.10157 8.07651C6.20235 8.15698 6.25782 8.2812 6.24922 8.4101L5.92891 13.0664C5.89141 13.6078 6.0836 14.1453 6.45547 14.5398L9.3461 17.6085C9.69766 17.982 9.93672 18.4445 10.0375 18.9468L10.9836 23.7554C11.025 23.9671 10.8875 24.1726 10.6758 24.214C10.6508 24.2195 10.625 24.2218 10.6 24.2218V24.2218Z" fill="#263238"/>
<path d="M12.1742 24.2218C11.9711 24.2218 11.8 24.0647 11.7852 23.8585L11.3914 18.2921C11.3719 18.0163 11.2953 17.7538 11.1656 17.5093L9.42188 14.246C9.38751 14.1819 9.37188 14.1093 9.37657 14.0366L9.74454 8.39285C9.7586 8.17801 9.93673 8.00457 10.1602 8.02801C10.375 8.04207 10.5383 8.22801 10.5242 8.44285L10.1633 13.9757L11.8547 17.1405C12.0367 17.4819 12.1438 17.8499 12.1703 18.2358L12.5641 23.8022C12.5797 24.0171 12.4172 24.2046 12.2024 24.2194C12.193 24.2218 12.1836 24.2218 12.1742 24.2218V24.2218Z" fill="#263238"/>
<path d="M20.7031 4.6875H13.6719C13.4563 4.6875 13.2813 4.5125 13.2813 4.29688C13.2813 4.08125 13.4563 3.90625 13.6719 3.90625H20.7031C20.9188 3.90625 21.0938 4.08125 21.0938 4.29688C21.0938 4.5125 20.9188 4.6875 20.7031 4.6875Z" fill="#263238"/>
<path d="M19.1406 6.2499C19.0406 6.2499 18.9406 6.21162 18.8641 6.13584C18.7117 5.9835 18.7117 5.73584 18.8641 5.5835L20.1508 4.29678L18.8648 3.01084C18.7125 2.8585 18.7125 2.61084 18.8648 2.4585C19.0172 2.30615 19.2648 2.30615 19.4172 2.4585L20.9797 4.021C21.132 4.17334 21.132 4.421 20.9797 4.57334L19.4172 6.13584C19.3406 6.21162 19.2406 6.2499 19.1406 6.2499Z" fill="#263238"/>
<path d="M20.7031 13.2812C20.057 13.2812 19.5312 12.7555 19.5312 12.1094C19.5312 11.4633 20.057 10.9375 20.7031 10.9375C21.3492 10.9375 21.875 11.4633 21.875 12.1094C21.875 12.7555 21.3492 13.2812 20.7031 13.2812ZM20.7031 11.7188C20.4875 11.7188 20.3125 11.8945 20.3125 12.1094C20.3125 12.3242 20.4875 12.5 20.7031 12.5C20.9187 12.5 21.0938 12.3242 21.0938 12.1094C21.0938 11.8945 20.9187 11.7188 20.7031 11.7188Z" fill="#263238"/>
</g>
<defs>
<clipPath id="clip0_3495_5891">
<rect width="25" height="25" fill="white"/>
</clipPath>
</defs>
</svg>
