<svg width="24" height="24" viewBox="0 0 24 24" fill="none" xmlns="http://www.w3.org/2000/svg">
<path d="M16.575 25.1875H5C4.1715 25.1865 3.37722 24.8459 2.79139 24.2406C2.20555 23.6352 1.87599 22.8144 1.875 21.9583V5.16667C1.87599 4.31055 2.20555 3.4898 2.79139 2.88443C3.37722 2.27907 4.1715 1.93853 5 1.9375H21.25C22.0785 1.93853 22.8728 2.27907 23.4586 2.88443C24.0444 3.4898 24.374 4.31055 24.375 5.16667V16.9337C24.375 17.105 24.3092 17.2693 24.1919 17.3904C24.0747 17.5115 23.9158 17.5796 23.75 17.5796C23.5842 17.5796 23.4253 17.5115 23.3081 17.3904C23.1908 17.2693 23.125 17.105 23.125 16.9337V5.16667C23.125 4.65281 22.9275 4.16 22.5758 3.79665C22.2242 3.4333 21.7473 3.22917 21.25 3.22917H5C4.50272 3.22917 4.02581 3.4333 3.67417 3.79665C3.32254 4.16 3.125 4.65281 3.125 5.16667V21.9583C3.125 22.4722 3.32254 22.965 3.67417 23.3284C4.02581 23.6917 4.50272 23.8958 5 23.8958H16.575C16.7408 23.8958 16.8997 23.9639 17.0169 24.085C17.1342 24.2061 17.2 24.3704 17.2 24.5417C17.2 24.713 17.1342 24.8772 17.0169 24.9983C16.8997 25.1195 16.7408 25.1875 16.575 25.1875Z" fill="#263238"/>
<path d="M7.5 9.68745C7.33425 9.68741 7.17531 9.61934 7.05812 9.49822L5.80812 8.20655C5.69428 8.08474 5.63128 7.92161 5.6327 7.75227C5.63413 7.58293 5.69986 7.42095 5.81574 7.30121C5.93162 7.18147 6.08838 7.11354 6.25225 7.11207C6.41612 7.1106 6.574 7.1757 6.69187 7.29334L7.54625 8.1762L10.2337 5.95388C10.2979 5.90087 10.3714 5.86143 10.4503 5.83781C10.5291 5.81418 10.6117 5.80684 10.6933 5.8162C10.7749 5.82555 10.8539 5.85142 10.9259 5.89233C10.9978 5.93325 11.0612 5.98839 11.1125 6.05463C11.1638 6.12087 11.202 6.1969 11.2248 6.27838C11.2477 6.35986 11.2548 6.4452 11.2457 6.52952C11.2367 6.61384 11.2117 6.69549 11.1721 6.76981C11.1325 6.84413 11.0791 6.90967 11.015 6.96267L7.89 9.54601C7.77928 9.63749 7.64176 9.68737 7.5 9.68745V9.68745Z" fill="#263238"/>
<path d="M20 8.39591H14.375C14.2092 8.39591 14.0503 8.32787 13.9331 8.20675C13.8158 8.08564 13.75 7.92137 13.75 7.75008C13.75 7.5788 13.8158 7.41453 13.9331 7.29341C14.0503 7.17229 14.2092 7.10425 14.375 7.10425H20C20.1658 7.10425 20.3247 7.17229 20.4419 7.29341C20.5592 7.41453 20.625 7.5788 20.625 7.75008C20.625 7.92137 20.5592 8.08564 20.4419 8.20675C20.3247 8.32787 20.1658 8.39591 20 8.39591Z" fill="#263238"/>
<path d="M7.5 9.68745C7.33425 9.68741 7.17531 9.61934 7.05812 9.49822L5.80812 8.20655C5.69428 8.08474 5.63128 7.92161 5.6327 7.75227C5.63413 7.58293 5.69986 7.42095 5.81574 7.30121C5.93162 7.18147 6.08838 7.11354 6.25225 7.11207C6.41612 7.1106 6.574 7.1757 6.69187 7.29334L7.54625 8.1762L10.2337 5.95388C10.2979 5.90087 10.3714 5.86143 10.4503 5.83781C10.5291 5.81418 10.6117 5.80684 10.6933 5.8162C10.7749 5.82555 10.8539 5.85142 10.9259 5.89233C10.9978 5.93325 11.0612 5.98839 11.1125 6.05463C11.1638 6.12087 11.202 6.1969 11.2248 6.27838C11.2477 6.35986 11.2548 6.4452 11.2457 6.52952C11.2367 6.61384 11.2117 6.69549 11.1721 6.76981C11.1325 6.84413 11.0791 6.90967 11.015 6.96267L7.89 9.54601C7.77928 9.63749 7.64176 9.68737 7.5 9.68745V9.68745Z" fill="#263238"/>
<path d="M20 8.39591H14.375C14.2092 8.39591 14.0503 8.32787 13.9331 8.20675C13.8158 8.08564 13.75 7.92137 13.75 7.75008C13.75 7.5788 13.8158 7.41453 13.9331 7.29341C14.0503 7.17229 14.2092 7.10425 14.375 7.10425H20C20.1658 7.10425 20.3247 7.17229 20.4419 7.29341C20.5592 7.41453 20.625 7.5788 20.625 7.75008C20.625 7.92137 20.5592 8.08564 20.4419 8.20675C20.3247 8.32787 20.1658 8.39591 20 8.39591Z" fill="#263238"/>
<path d="M7.5 15.4999C7.33425 15.4999 7.17531 15.4318 7.05812 15.3107L5.80812 14.0191C5.69428 13.8972 5.63128 13.7341 5.6327 13.5648C5.63413 13.3954 5.69986 13.2335 5.81574 13.1137C5.93162 12.994 6.08838 12.926 6.25225 12.9246C6.41612 12.9231 6.574 12.9882 6.69187 13.1058L7.54625 13.9887L10.2337 11.7664C10.3632 11.6593 10.5285 11.6098 10.6933 11.6287C10.8581 11.6476 11.0089 11.7334 11.1125 11.8671C11.2161 12.0009 11.264 12.1717 11.2457 12.342C11.2275 12.5123 11.1445 12.6681 11.015 12.7752L7.89 15.3585C7.77928 15.45 7.64176 15.4999 7.5 15.4999V15.4999Z" fill="#263238"/>
<path d="M20 14.2084H14.375C14.2092 14.2084 14.0503 14.1404 13.9331 14.0193C13.8158 13.8981 13.75 13.7339 13.75 13.5626C13.75 13.3913 13.8158 13.227 13.9331 13.1059C14.0503 12.9848 14.2092 12.9167 14.375 12.9167H20C20.1658 12.9167 20.3247 12.9848 20.4419 13.1059C20.5592 13.227 20.625 13.3913 20.625 13.5626C20.625 13.7339 20.5592 13.8981 20.4419 14.0193C20.3247 14.1404 20.1658 14.2084 20 14.2084Z" fill="#263238"/>
<path d="M7.5 21.3124C7.33425 21.3124 7.17531 21.2443 7.05812 21.1232L5.80812 19.8316C5.69428 19.7097 5.63128 19.5466 5.6327 19.3773C5.63413 19.2079 5.69986 19.046 5.81574 18.9262C5.93162 18.8065 6.08838 18.7385 6.25225 18.7371C6.41612 18.7356 6.574 18.8007 6.69187 18.9183L7.54625 19.8012L10.2337 17.5789C10.3632 17.4718 10.5285 17.4223 10.6933 17.4412C10.8581 17.4601 11.0089 17.5459 11.1125 17.6796C11.2161 17.8134 11.264 17.9842 11.2457 18.1545C11.2275 18.3248 11.1445 18.4806 11.015 18.5877L7.89 21.171C7.77928 21.2625 7.64176 21.3124 7.5 21.3124Z" fill="#263238"/>
<path d="M17.2 20.0209H14.375C14.2092 20.0209 14.0503 19.9529 13.9331 19.8318C13.8158 19.7106 13.75 19.5464 13.75 19.3751C13.75 19.2038 13.8158 19.0395 13.9331 18.9184C14.0503 18.7973 14.2092 18.7292 14.375 18.7292H17.2C17.3658 18.7292 17.5247 18.7973 17.6419 18.9184C17.7592 19.0395 17.825 19.2038 17.825 19.3751C17.825 19.5464 17.7592 19.7106 17.6419 19.8318C17.5247 19.9529 17.3658 20.0209 17.2 20.0209Z" fill="#263238"/>
<path d="M21.875 29.0624C20.6389 29.0624 19.4305 28.6836 18.4027 27.974C17.3749 27.2643 16.5738 26.2557 16.1008 25.0756C15.6277 23.8955 15.5039 22.5969 15.7451 21.3441C15.9862 20.0913 16.5815 18.9406 17.4556 18.0374C18.3297 17.1341 19.4433 16.519 20.6557 16.2698C21.8681 16.0207 23.1247 16.1486 24.2668 16.6374C25.4088 17.1262 26.3849 17.954 27.0717 19.016C27.7584 20.0781 28.125 21.3268 28.125 22.6041C28.1232 24.3164 27.4641 25.958 26.2924 27.1687C25.1207 28.3795 23.532 29.0605 21.875 29.0624V29.0624ZM21.875 17.4374C20.8861 17.4374 19.9194 17.7404 19.0971 18.3082C18.2749 18.8759 17.634 19.6828 17.2556 20.6269C16.8772 21.571 16.7781 22.6098 16.9711 23.6121C17.164 24.6143 17.6402 25.5349 18.3395 26.2575C19.0387 26.98 19.9296 27.4721 20.8995 27.6715C21.8695 27.8708 22.8748 27.7685 23.7884 27.3775C24.702 26.9864 25.4829 26.3242 26.0323 25.4745C26.5818 24.6249 26.875 23.626 26.875 22.6041C26.8735 21.2343 26.3462 19.921 25.4089 18.9524C24.4715 17.9838 23.2006 17.439 21.875 17.4374V17.4374Z" fill="#263238"/>
<path d="M21.25 25.1875C21.0843 25.1874 20.9253 25.1194 20.8081 24.9982L18.9331 23.0607C18.8193 22.9389 18.7563 22.7758 18.7577 22.6064C18.7591 22.4371 18.8249 22.2751 18.9407 22.1554C19.0566 22.0356 19.2134 21.9677 19.3772 21.9663C19.5411 21.9648 19.699 22.0299 19.8169 22.1475L21.25 23.6284L23.9331 20.8559C24.051 20.7382 24.2089 20.6731 24.3728 20.6746C24.5366 20.6761 24.6934 20.744 24.8093 20.8637C24.9251 20.9835 24.9909 21.1454 24.9923 21.3148C24.9937 21.4841 24.9307 21.6473 24.8169 21.7691L21.6919 24.9982C21.5747 25.1194 21.4157 25.1874 21.25 25.1875V25.1875Z" fill="#263238"/>
</svg>
