<svg width="30" height="30" viewBox="0 0 30 30" fill="none" xmlns="http://www.w3.org/2000/svg">
<path d="M30 15C30 23.2843 23.2843 30 15 30C6.71573 30 0 23.2843 0 15C0 6.71573 6.71573 0 15 0C23.2843 0 30 6.71573 30 15Z" fill="#FF0032"/>
<path d="M24.8666 13.3388C24.6891 13.1613 24.401 13.1613 24.2237 13.3388L23.1501 14.4125C22.8895 10.8849 20.3894 7.92506 16.955 7.07821C13.5209 6.23119 9.93133 7.68945 8.06047 10.6914C7.97272 10.8291 7.96556 11.0034 8.04182 11.1479C8.11808 11.2925 8.26593 11.385 8.42928 11.3902C8.59262 11.3955 8.7463 11.3126 8.83155 11.1733C10.4821 8.52531 13.6387 7.22606 16.675 7.94504C19.7114 8.66401 21.9502 11.2405 22.2383 14.3475L21.2291 13.3388C21.0508 13.1667 20.7672 13.169 20.5917 13.3445C20.4164 13.5198 20.4139 13.8034 20.5862 13.9819L22.4049 15.8005C22.5824 15.9781 22.8703 15.9781 23.0478 15.8005L24.8666 13.9819C25.0442 13.8044 25.0442 13.5163 24.8666 13.3388Z" fill="white"/>
<path d="M21.79 18.7331C21.577 18.6004 21.2966 18.665 21.1631 18.8775C19.5125 21.5257 16.3559 22.825 13.3193 22.106C10.2829 21.387 8.04406 18.8104 7.75617 15.7032L8.76503 16.7121C8.94335 16.8842 9.22691 16.8819 9.40241 16.7064C9.57774 16.5311 9.58024 16.2475 9.40791 16.069L7.58916 14.2504C7.41167 14.0728 7.12378 14.0728 6.94628 14.2504L5.12771 16.069C4.95537 16.2475 4.9577 16.5311 5.1332 16.7064C5.30853 16.8819 5.59209 16.8842 5.77059 16.7121L6.84405 15.6384C7.1048 19.166 9.60472 22.1258 13.0391 22.9727C16.4734 23.8197 20.0628 22.3616 21.9336 19.3595C22.0665 19.1469 22.0022 18.8666 21.79 18.7331Z" fill="white"/>
</svg>
