<svg width="108" height="100" viewBox="0 0 108 100" fill="none" xmlns="http://www.w3.org/2000/svg">
<rect x="-0.9" y="0.9" width="27.2" height="73.2" transform="matrix(-1 0 0 1 105.2 25)" stroke="#C10206" stroke-width="1.8"/>
<rect x="-0.9" y="0.9" width="28.2" height="58.2" transform="matrix(-1 0 0 1 67.2 40)" stroke="#C10206" stroke-width="1.8"/>
<rect x="-0.9" y="0.9" width="28.2" height="38.2" transform="matrix(-1 0 0 1 28.2 60)" stroke="#C10206" stroke-width="1.8"/>
<path d="M15 36.9416L13.3255 42.0952L13.1908 42.5098H12.7549H7.33604L11.72 45.6949L12.0726 45.9512L11.9379 46.3658L10.2634 51.5193L14.6473 48.3342L15 48.078L15.3527 48.3342L19.7366 51.5193L18.0621 46.3658L17.9274 45.9512L18.28 45.6949L22.664 42.5098H17.2451H16.8092L16.6745 42.0952L15 36.9416Z" stroke="#C10206" stroke-width="1.2"/>
<path d="M54 16.9416L52.3255 22.0952L52.1908 22.5098H51.7549H46.336L50.72 25.6949L51.0726 25.9512L50.9379 26.3658L49.2634 31.5193L53.6473 28.3342L54 28.078L54.3527 28.3342L58.7366 31.5193L57.0621 26.3658L56.9274 25.9512L57.28 25.6949L61.664 22.5098H56.2451H55.8092L55.6745 22.0952L54 16.9416Z" stroke="#C10206" stroke-width="1.2"/>
<path d="M92 1.94164L90.3255 7.09524L90.1908 7.50983H89.7549H84.336L88.72 10.6949L89.0726 10.9512L88.9379 11.3658L87.2634 16.5193L91.6473 13.3342L92 13.078L92.3527 13.3342L96.7366 16.5193L95.0621 11.3658L94.9274 10.9512L95.28 10.6949L99.664 7.50983H94.2451H93.8092L93.6745 7.09524L92 1.94164Z" stroke="#C10206" stroke-width="1.2"/>
</svg>
