<svg width="99" height="99" viewBox="0 0 99 99" fill="none" xmlns="http://www.w3.org/2000/svg">
<path d="M17.8489 1V11.6569H1V22.0906C1 39.5545 5.62226 49.2908 16.7306 55.3445C20.8603 57.8371 24.6719 60.9431 28.0626 64.5787C30.7878 67.842 34.1115 70.4024 37.8041 72.0831L42.0039 73.5338V86.1714H35.5924C27.8389 86.1714 25.2296 88.1521 25.2296 94.0385V98H73.6888V94.457C73.6888 88.6822 70.5078 86.0877 63.152 86.0877H56.9144V73.5338L61.1888 72.111C64.8867 70.4285 68.2117 67.8575 70.9303 64.5787C74.4676 60.7939 78.427 57.54 82.7096 54.8982C86.0349 53.1018 89.0046 50.5733 91.4423 47.463C93.8799 44.3527 95.7357 40.724 96.8994 36.7926C97.6906 31.925 98.0568 26.9823 97.9929 22.0348V11.6848H81.0695V1H17.8489ZM49.4592 18.7708L54.5536 30.5994H66.8299L57.2126 40.5588L59.9711 53.2801L49.4592 46.9474L38.9473 53.3638L41.7057 40.6425L32.0636 30.6831H44.3647L49.4592 18.7708ZM9.84691 22.3138H17.6998V44.2971C16.8797 44.855 14.3201 41.5073 12.4562 37.6854C11.3981 34.7593 10.7202 31.6776 10.4433 28.5349L9.84691 22.3138ZM81.2186 22.3138H89.7673L89.0466 28.4513C88.8772 33.5604 87.0473 38.4231 83.9025 42.1211C83.1626 43.253 82.2237 44.2024 81.144 44.9108L81.2186 22.3138Z" stroke="#C10206" stroke-width="1.8" stroke-linecap="round" stroke-linejoin="round"/>
</svg>
