<svg width="20" height="23" viewBox="0 0 20 23" fill="none" xmlns="http://www.w3.org/2000/svg">
<path d="M10.2627 10.4024C9.55972 10.3943 8.87467 10.1588 8.29377 9.7256C7.71288 9.29238 7.2621 8.68078 6.99821 7.96782C6.73431 7.25486 6.66909 6.4724 6.81076 5.71897C6.95242 4.96553 7.29464 4.2748 7.79433 3.73374C8.29401 3.19267 8.92882 2.82547 9.61884 2.67836C10.3089 2.53124 11.0232 2.6108 11.672 2.907C12.3208 3.20321 12.875 3.70282 13.2648 4.34295C13.6546 4.98307 13.8626 5.73508 13.8627 6.50429C13.8561 7.54302 13.4735 8.53653 12.7987 9.26718C12.1239 9.99783 11.212 10.406 10.2627 10.4024ZM10.2627 3.97394C9.80697 3.98203 9.36362 4.13728 8.98829 4.42019C8.61297 4.7031 8.32241 5.10105 8.15312 5.56406C7.98383 6.02708 7.94335 6.53451 8.03677 7.02261C8.13019 7.51072 8.35334 7.95774 8.67819 8.30752C9.00304 8.6573 9.41511 8.89425 9.86264 8.98861C10.3102 9.08296 10.7732 9.03051 11.1936 8.83785C11.6139 8.64519 11.9729 8.3209 12.2254 7.90572C12.4779 7.49054 12.6126 7.00299 12.6127 6.50429C12.6061 5.82832 12.3552 5.1827 11.9148 4.70855C11.4745 4.2344 10.8805 3.97029 10.2627 3.97394Z" fill="#FF9900"/>
<path d="M10.2627 10.4024C9.55972 10.3943 8.87467 10.1588 8.29377 9.7256C7.71288 9.29238 7.2621 8.68078 6.99821 7.96782C6.73431 7.25486 6.66909 6.4724 6.81076 5.71897C6.95242 4.96553 7.29464 4.2748 7.79433 3.73374C8.29401 3.19267 8.92882 2.82547 9.61884 2.67836C10.3089 2.53124 11.0232 2.6108 11.672 2.907C12.3208 3.20321 12.875 3.70282 13.2648 4.34295C13.6546 4.98307 13.8626 5.73508 13.8627 6.50429C13.8561 7.54302 13.4735 8.53653 12.7987 9.26718C12.1239 9.99783 11.212 10.406 10.2627 10.4024ZM10.2627 3.97394C9.80697 3.98203 9.36362 4.13728 8.98829 4.42019C8.61297 4.7031 8.32241 5.10105 8.15312 5.56406C7.98383 6.02708 7.94335 6.53451 8.03677 7.02261C8.13019 7.51072 8.35334 7.95774 8.67819 8.30752C9.00304 8.6573 9.41511 8.89425 9.86264 8.98861C10.3102 9.08296 10.7732 9.03051 11.1936 8.83785C11.6139 8.64519 11.9729 8.3209 12.2254 7.90572C12.4779 7.49054 12.6126 7.00299 12.6127 6.50429C12.6061 5.82832 12.3552 5.1827 11.9148 4.70855C11.4745 4.2344 10.8805 3.97029 10.2627 3.97394ZM12.4436 11.3188C9.67146 10.791 6.8176 11.2714 4.31863 12.6866C4.14124 12.7943 3.99435 12.9534 3.89404 13.1464C3.79373 13.3394 3.74385 13.5588 3.74988 13.7808V16.2154C3.74988 16.3967 3.81573 16.5707 3.93294 16.6989C4.05015 16.8272 4.20912 16.8992 4.37488 16.8992C4.54064 16.8992 4.69961 16.8272 4.81682 16.6989C4.93403 16.5707 4.99988 16.3967 4.99988 16.2154V13.8697C7.31717 12.5974 9.95237 12.1937 12.4999 12.7207L12.4436 11.3188Z" fill="#FF9900"/>
<path d="M19.375 14.2935H15.1875V13.2813C15.1875 13.0999 15.1217 12.926 15.0044 12.7977C14.8872 12.6695 14.7283 12.5974 14.5625 12.5974C14.3967 12.5974 14.2378 12.6695 14.1206 12.7977C14.0033 12.926 13.9375 13.0999 13.9375 13.2813V14.2935H9.375C9.20924 14.2935 9.05027 14.3655 8.93306 14.4938C8.81585 14.622 8.75 14.796 8.75 14.9773V21.8161C8.75 21.9975 8.81585 22.1714 8.93306 22.2997C9.05027 22.4279 9.20924 22.5 9.375 22.5H19.375C19.5408 22.5 19.6997 22.4279 19.8169 22.2997C19.9342 22.1714 20 21.9975 20 21.8161V14.9773C20 14.796 19.9342 14.622 19.8169 14.4938C19.6997 14.3655 19.5408 14.2935 19.375 14.2935ZM18.75 21.1322H10V15.6612H13.9375V15.9416C13.9375 16.123 14.0033 16.2969 14.1206 16.4252C14.2378 16.5534 14.3967 16.6255 14.5625 16.6255C14.7283 16.6255 14.8872 16.5534 15.0044 16.4252C15.1217 16.2969 15.1875 16.123 15.1875 15.9416V15.6612H18.75V21.1322Z" fill="#FF9900"/>
<path d="M12.3812 18.0005H16.1062V18.9579H12.3812V18.0005ZM5.525 7.6192C3.79465 7.65088 2.09431 8.11894 0.55625 8.98696C0.388976 9.08364 0.248861 9.22825 0.150884 9.40532C0.0529077 9.58239 0.000754279 9.78527 0 9.99226V12.1123C0 12.2937 0.065848 12.4676 0.183058 12.5959C0.300268 12.7241 0.45924 12.7962 0.625 12.7962C0.79076 12.7962 0.949731 12.7241 1.06694 12.5959C1.18415 12.4676 1.25 12.2937 1.25 12.1123V10.129C2.71956 9.32864 4.3466 8.93641 5.9875 8.98696C5.77281 8.55835 5.61697 8.09749 5.525 7.6192ZM19.4437 8.98012C18.0643 8.18833 16.5482 7.72236 14.9937 7.61236C14.9022 8.08981 14.7486 8.55042 14.5375 8.98012C16.0019 9.01847 17.4405 9.41082 18.75 10.129V12.1123C18.75 12.2937 18.8158 12.4676 18.9331 12.5959C19.0503 12.7241 19.2092 12.7962 19.375 12.7962C19.5408 12.7962 19.6997 12.7241 19.8169 12.5959C19.9342 12.4676 20 12.2937 20 12.1123V9.99226C20.0004 9.78411 19.9488 9.57979 19.8507 9.40141C19.7527 9.22302 19.612 9.07734 19.4437 8.98012ZM5.4125 6.50448V6.04628C4.92289 5.97459 4.4774 5.69903 4.16879 5.27698C3.86018 4.85494 3.71222 4.31891 3.75571 3.78049C3.7992 3.24208 4.03079 2.74276 4.40226 2.38648C4.77374 2.0302 5.25648 1.84441 5.75 1.86778C6.26332 1.86677 6.75671 2.08517 7.125 2.47644C7.44993 2.18318 7.80682 1.93509 8.1875 1.73785C7.76226 1.20282 7.19883 0.82134 6.57149 0.643689C5.94415 0.466039 5.28233 0.500558 4.67328 0.742695C4.06422 0.984832 3.53651 1.42322 3.15971 2.00008C2.7829 2.57694 2.57468 3.2652 2.5625 3.97413C2.57562 4.84181 2.88387 5.67297 3.42706 6.30527C3.97025 6.93756 4.70935 7.32558 5.5 7.39352C5.44698 7.10057 5.4177 6.80307 5.4125 6.50448ZM14.2312 0.500027C13.8017 0.500131 13.3766 0.593928 12.9806 0.775935C12.5846 0.957941 12.2257 1.2245 11.925 1.56004C12.3475 1.72757 12.7471 1.95767 13.1125 2.24392C13.4043 2.02229 13.7456 1.89147 14.0999 1.8654C14.4543 1.83932 14.8086 1.91898 15.1248 2.09587C15.4411 2.27276 15.7076 2.54026 15.8958 2.86983C16.084 3.19941 16.187 3.57871 16.1937 3.96729C16.1898 4.36643 16.0826 4.75618 15.8847 5.09144C15.6867 5.42669 15.4059 5.69373 15.075 5.86164C15.1001 6.07252 15.1127 6.28497 15.1125 6.49764C15.1108 6.77254 15.0899 7.04689 15.05 7.3183C15.7309 7.12676 16.3348 6.69431 16.7677 6.08824C17.2006 5.48218 17.4383 4.73651 17.4437 3.96729C17.4355 3.04221 17.093 2.1583 16.4911 1.50864C15.8892 0.858976 15.0767 0.49637 14.2312 0.500027Z" fill="#FF9900"/>
</svg>
