<svg width="86" height="86" viewBox="0 0 86 86" fill="none" xmlns="http://www.w3.org/2000/svg">
<path d="M73.6734 28.8218C78.4714 46.7284 60.1397 70.2393 42.2685 75.0279C24.3974 79.8164 13.7544 64.0692 8.95634 46.1627C4.1583 28.2561 19.7893 18.9346 37.6604 14.1461C55.5315 9.35753 68.8753 10.9152 73.6734 28.8218Z" fill="#C10206" fill-opacity="0.05"/>
<circle cx="38" cy="38.2734" r="4.5" stroke="#C10206" stroke-width="2"/>
<circle cx="53" cy="22.2734" r="5.5" stroke="#C10206" stroke-width="2"/>
<circle cx="21" cy="45.2734" r="3.5" stroke="#C10206" stroke-width="2"/>
<path d="M38 42.7734L35 60.7734" stroke="#C10206" stroke-width="2"/>
<path d="M42.5 39.2734L63.5 42.7734" stroke="#C10206" stroke-width="2"/>
<path d="M41.5 34.7734L49.5 26.2734" stroke="#C10206" stroke-width="2"/>
<path d="M34 34.7734L21 24.2734" stroke="#C10206" stroke-width="2"/>
<path d="M33.5 39.7734L24 43.2734" stroke="#C10206" stroke-width="2"/>
<circle cx="33.5" cy="66.7734" r="6" stroke="#C10206" stroke-width="2"/>
<circle cx="69.5" cy="43.7734" r="6" stroke="#C10206" stroke-width="2"/>
<circle cx="16" cy="21.2734" r="6.5" stroke="#C10206" stroke-width="2"/>
</svg>
