<svg width="86" height="86" viewBox="0 0 86 86" fill="none" xmlns="http://www.w3.org/2000/svg">
<path d="M73.6734 28.8218C78.4714 46.7284 60.1397 70.2393 42.2685 75.0279C24.3974 79.8164 13.7544 64.0692 8.95634 46.1627C4.1583 28.2561 19.7893 18.9346 37.6604 14.1461C55.5315 9.35753 68.8753 10.9152 73.6734 28.8218Z" fill="#C10206" fill-opacity="0.05"/>
<path d="M12.5 27.4701C12.7738 27.1581 13.0301 26.8302 13.323 26.5373C17.0926 22.7598 20.8685 18.987 24.6428 15.2127C25.5215 14.334 25.9561 14.3324 26.8237 15.2C28.4649 16.8412 30.1061 18.484 31.7474 20.1252C32.7932 21.1711 32.7932 21.4528 31.7569 22.5178C31.6885 22.5879 31.6232 22.6627 31.4704 22.8282C31.8142 23.1355 32.1342 23.4586 32.494 23.726C32.6484 23.8423 32.8856 23.8836 33.0877 23.8932C34.5109 23.9648 35.9547 23.8948 37.3556 24.1081C39.5905 24.4472 41.4897 25.5456 43.0831 27.155C43.6132 27.6898 44.1385 28.2295 44.7148 28.8169C44.9058 28.6338 45.0698 28.4746 45.2369 28.3186C46.6855 26.9687 48.08 25.5519 49.6034 24.2912C50.7066 23.3774 52.0756 22.8999 53.4828 22.5703C53.8187 22.4908 54.1212 22.2647 54.5048 22.0721C54.2692 21.8206 54.1403 21.6757 54.005 21.5372C53.2329 20.7524 53.2345 20.3258 54.0273 19.5299C55.3167 18.2373 56.6077 16.9478 57.8987 15.6568C58.3333 15.2222 58.7679 14.7861 59.2041 14.3531C59.9809 13.5826 60.4473 13.5794 61.2178 14.3483C64.7119 17.8409 68.2061 21.3335 71.7003 24.8276C72.1349 25.2622 72.5758 25.692 73.004 26.133C73.6153 26.7649 73.628 27.2648 73.012 27.8856C71.21 29.7035 69.3984 31.5119 67.5837 33.3155C66.931 33.9634 66.4423 33.9602 65.7928 33.3171C65.6257 33.1515 65.5047 32.9398 65.3726 32.7631C64.4875 33.376 64.0402 33.9936 64.107 35.0411C64.2471 37.2347 64.0656 39.4283 62.9593 41.3879C62.3512 42.464 61.6142 43.4971 60.7784 44.4061C59.2757 46.041 57.6727 47.5851 56.0712 49.1244C55.6573 49.5224 55.1193 49.836 54.5828 50.0509C54.2262 50.1942 54.1467 50.3438 54.1483 50.6813C54.1594 52.4467 54.1483 54.2137 54.1546 55.979C54.1642 58.3541 53.5943 60.5621 52.324 62.5837C52.168 62.8305 52.1473 63.1616 52.0279 63.5739C52.4163 63.5739 52.6869 63.5596 52.9543 63.5771C53.763 63.628 54.1451 64.0117 54.1483 64.8267C54.1578 67.4055 54.1594 69.986 54.1467 72.5648C54.1435 73.3751 53.7344 73.7699 52.9273 73.7699C47.292 73.7746 41.6568 73.7746 36.0232 73.7699C35.2145 73.7699 34.799 73.3862 34.7942 72.5712C34.7767 69.9716 34.7767 67.3721 34.7958 64.7742C34.8006 63.9989 35.2017 63.6296 35.9818 63.5771C36.2349 63.5612 36.4896 63.5739 36.7554 63.5739C36.9098 62.6347 36.8573 61.8897 36.0868 61.1893C35.1269 60.3153 34.2402 59.322 33.4968 58.2586C32.2377 56.4566 31.7315 54.3904 31.7617 52.1888C31.7792 50.8596 31.7378 49.5288 31.7776 48.2011C31.7935 47.6742 31.6105 47.3208 31.2507 46.9643C29.0778 44.8168 26.9351 42.6359 24.7574 40.4949C23.0175 38.7836 21.7966 36.7969 21.2633 34.398C21.1996 34.1146 20.9783 33.8663 20.7778 33.5081C20.5024 33.774 20.3129 33.965 20.1155 34.1465C19.5074 34.702 18.9917 34.71 18.4027 34.121C16.4272 32.1503 14.466 30.1652 12.5 28.1833C12.5 27.9461 12.5 27.7073 12.5 27.4701ZM55.9136 23.5939C55.4409 23.8789 54.9776 24.3373 54.4412 24.4504C52.3749 24.8833 50.6254 25.8321 49.1418 27.3205C45.5139 30.9595 41.8749 34.5874 38.2422 38.2233C38.0894 38.3761 37.9334 38.5369 37.822 38.7199C37.5498 39.1657 37.6087 39.6018 37.9828 39.9568C38.3616 40.3166 38.7994 40.3309 39.2292 40.0348C39.39 39.9234 39.5316 39.7785 39.6717 39.64C41.0487 38.2662 42.4225 36.8909 43.7979 35.5171C43.9666 35.3483 44.129 35.1748 44.3041 35.014C44.8342 34.5285 45.4104 34.5015 45.8371 34.936C46.2525 35.3595 46.2159 35.9501 45.7384 36.4738C45.6317 36.5916 45.5155 36.6998 45.4025 36.8113C43.5225 38.6913 41.6441 40.5729 39.7641 42.4529C39.624 42.593 39.4775 42.7299 39.3549 42.8843C38.9872 43.3475 39.0127 43.9047 39.4059 44.274C39.772 44.6178 40.3324 44.6242 40.7574 44.2804C40.8959 44.1689 41.0185 44.0368 41.1442 43.911C43.0847 41.9801 45.022 40.0444 46.9673 38.1182C47.1742 37.9128 47.4194 37.6327 47.6693 37.6072C48.0211 37.5722 48.5098 37.6343 48.7215 37.8603C48.9333 38.0864 48.9524 38.5735 48.9078 38.9285C48.8791 39.1609 48.6053 39.3774 48.4111 39.5732C46.4802 41.5137 44.5413 43.4478 42.6072 45.3851C42.4527 45.5395 42.284 45.6876 42.171 45.869C41.8972 46.302 41.9083 46.7446 42.2792 47.1155C42.6454 47.4816 43.0815 47.5294 43.5193 47.2412C43.7151 47.1123 43.8854 46.9388 44.0526 46.7716C46.0329 44.7961 48.0084 42.8158 49.9919 40.8419C50.5315 40.3054 51.1285 40.2545 51.5678 40.6763C52.039 41.1284 51.9929 41.7111 51.4277 42.2921C51.0266 42.7044 50.6159 43.1071 50.2084 43.5147C48.5815 45.1432 46.9514 46.7685 45.3277 48.3985C44.761 48.9668 44.7037 49.5702 45.1526 50.0095C45.6158 50.4632 46.1602 50.3947 46.7635 49.8073C46.8622 49.7102 46.9593 49.6115 47.058 49.5128C50.116 46.4549 53.1756 43.3953 56.2336 40.3389C56.3737 40.1988 56.509 40.0491 56.6634 39.9282C57.1171 39.5732 57.6918 39.6066 58.0595 39.9966C58.4161 40.3723 58.432 40.9104 58.0881 41.3481C57.9672 41.5041 57.8223 41.641 57.6822 41.7811C56.1683 43.2982 54.6481 44.8073 53.1422 46.3323C52.6232 46.8592 52.6073 47.4211 53.0499 47.8573C53.4622 48.2632 54.0496 48.2473 54.5303 47.7697C56.2877 46.0187 58.0563 44.2804 59.7708 42.4895C60.9631 41.2431 61.7208 39.726 61.9007 38.0052C62.0392 36.6696 62.0249 35.3149 62.0312 33.9698C62.0344 33.3505 62.2016 32.8539 62.6759 32.4479C63.0675 32.1136 63.4305 31.7459 63.7552 31.4419C61.0888 28.7691 58.4702 26.1505 55.9136 23.5939ZM43.1691 30.2639C42.5371 29.6017 41.9115 28.8837 41.2222 28.2327C40.0426 27.1183 38.6386 26.3749 37.034 26.1393C35.9229 25.977 34.7767 25.8846 33.6592 25.9579C32.322 26.0454 31.2491 25.7398 30.4564 24.6239C30.3561 24.4822 30.2033 24.3771 30.1682 24.3421C27.5369 26.9719 24.923 29.5873 22.3569 32.1518C22.6148 32.5753 23.0637 33.0242 23.1688 33.5431C23.6017 35.6779 24.611 37.4544 26.1487 38.9778C29.0093 41.8129 31.8445 44.672 34.6923 47.5198C34.8595 47.687 35.0266 47.8621 35.2208 47.9974C35.7318 48.3556 36.4036 48.1677 36.6726 47.6026C36.9194 47.0852 36.7045 46.6873 36.3415 46.3243C35.1349 45.1193 33.9251 43.9142 32.7232 42.7044C32.1342 42.1106 32.0689 41.4914 32.5306 41.0409C32.9938 40.5872 33.5844 40.6652 34.1941 41.2669C34.7305 41.797 35.2591 42.3335 35.7939 42.8652C36.1776 43.2456 36.5644 43.6229 36.9337 43.9843C37.0674 43.2982 37.19 42.6694 37.3014 42.1011C36.9035 41.719 36.4402 41.3879 36.1266 40.9501C35.232 39.7053 35.4294 38.1469 36.5994 36.9561C37.849 35.6842 39.1209 34.4346 40.4597 33.1006C39.893 32.5641 39.3502 32.0738 38.8344 31.5565C38.2693 30.9882 38.2311 30.3849 38.6959 29.9375C39.148 29.5014 39.7147 29.5444 40.2719 30.092C40.794 30.6061 41.2923 31.1458 41.7857 31.6584C42.2888 31.1506 42.7441 30.6921 43.1691 30.2639ZM50.0985 63.5405C49.777 62.4484 50.4726 61.7225 50.9231 60.8979C51.5965 59.6658 52.0215 58.3494 52.0422 56.9374C52.0756 54.6578 52.074 52.3766 52.0724 50.0971C52.0724 49.9172 52.0072 49.7023 51.8957 49.5638C51.6124 49.2136 51.2877 48.9 50.9486 48.5386C50.8292 48.6501 50.6827 48.7774 50.5458 48.9143C49.6878 49.7676 48.8441 50.6351 47.9734 51.474C47.1201 52.297 46.0981 52.5708 44.9615 52.219C43.809 51.8625 43.1086 51.0681 42.838 49.879C42.7982 49.7039 42.5849 49.4762 42.4129 49.4348C41.0869 49.1133 40.2687 48.3173 39.9662 46.9786C39.9296 46.8178 39.7832 46.6236 39.6367 46.5599C39.3645 46.4421 39.0557 46.4087 38.7357 46.3339C39 47.6965 38.6895 48.8363 37.5752 49.6386C36.3559 50.5173 35.0999 50.39 33.8041 49.5495C33.8041 50.6096 33.785 51.5934 33.8089 52.5772C33.8518 54.4302 34.3628 56.1542 35.5313 57.5996C36.3877 58.6598 37.3826 59.6101 38.3409 60.5843C38.7293 60.9791 38.9299 61.4073 38.9092 61.9597C38.8901 62.485 38.9044 63.0135 38.9044 63.542C42.6597 63.5405 46.3194 63.5405 50.0985 63.5405ZM56.0537 20.5327C59.5861 24.0651 63.1567 27.6357 66.6922 31.1713C68.0581 29.8054 69.4685 28.395 70.8407 27.0212C67.3131 23.4936 63.7409 19.9215 60.2022 16.3811C58.8331 17.7517 57.4243 19.1621 56.0537 20.5327ZM19.2368 31.9338C22.7756 28.395 26.3461 24.8244 29.8467 21.3239C28.4968 19.974 27.0864 18.5636 25.746 17.2216C22.2264 20.7413 18.659 24.3087 15.1377 27.8315C16.4845 29.1798 17.8837 30.5791 19.2368 31.9338ZM52.0804 65.6959C46.9816 65.6959 41.9593 65.6959 36.9178 65.6959C36.9178 67.7175 36.9178 69.7026 36.9178 71.6909C41.9863 71.6909 47.0071 71.6909 52.0438 71.6909C52.0581 71.5078 52.0788 71.3709 52.0804 71.234C52.082 69.4113 52.0804 67.5886 52.0804 65.6959Z" fill="#C10206"/>
<path d="M45.9623 58.205C46.0164 58.9978 45.7203 59.4435 45.0963 59.5056C44.4325 59.5724 44.0138 59.1665 43.9374 58.3817C43.7782 56.7564 42.8295 55.7599 41.209 55.5147C40.2634 55.3715 39.8113 54.9608 39.902 54.324C39.9991 53.6427 40.5802 53.3386 41.5226 53.4787C44.0505 53.8544 45.7904 55.7058 45.9623 58.205Z" fill="#C10206"/>
</svg>
