<svg width="86" height="86" viewBox="0 0 86 86" fill="none" xmlns="http://www.w3.org/2000/svg">
<path d="M79.59 56.5728C69.5326 73.9928 37.4289 77.9666 20.0434 67.929C2.65789 57.8915 6.57405 37.6437 16.6315 20.2237C26.6889 2.80372 45.8336 7.64465 63.2191 17.6822C80.6046 27.7197 89.6474 39.1528 79.59 56.5728Z" fill="#C10206" fill-opacity="0.05"/>
<path d="M71.582 42.7381C71.3075 42.7381 71.0441 42.8472 70.85 43.0414C70.6558 43.2355 70.5467 43.4989 70.5467 43.7734C70.5485 50.5548 68.0844 57.1055 63.6136 62.2044C59.1428 67.3033 52.9705 70.6026 46.247 71.4873C39.5236 72.372 32.7079 70.7817 27.0703 67.0129C21.4326 63.244 17.3578 57.5538 15.6052 51.0028L19.3323 52.9699C19.5753 53.0981 19.8592 53.1245 20.1217 53.0434C20.3842 52.9622 20.6037 52.7801 20.732 52.5371C20.8602 52.2941 20.8866 52.0101 20.8055 51.7476C20.7243 51.4851 20.5422 51.2656 20.2992 51.1374L14.6931 48.1786C14.5628 48.0964 14.4165 48.0427 14.2639 48.021C14.1113 47.9993 13.9559 48.0102 13.8078 48.0528C13.6597 48.0954 13.5222 48.1689 13.4045 48.2683C13.2868 48.3678 13.1914 48.491 13.1247 48.63L10.5789 54.7651C10.4738 55.0188 10.4737 55.3038 10.5787 55.5576C10.6838 55.8114 10.8853 56.013 11.139 56.1182C11.3927 56.2233 11.6778 56.2234 11.9316 56.1184C12.1853 56.0133 12.387 55.8118 12.4921 55.5581L13.8266 52.3425C15.8896 59.2494 20.3687 65.1834 26.4455 69.0606C32.5224 72.9377 39.7914 74.4991 46.9244 73.4594C54.0574 72.4198 60.5782 68.8485 65.2955 63.398C70.0129 57.9475 72.6117 50.9818 72.6173 43.7734C72.6173 43.4989 72.5082 43.2355 72.3141 43.0414C72.1199 42.8472 71.8566 42.7381 71.582 42.7381Z" fill="#C10206"/>
<path d="M74.0489 31.4287C73.9233 31.3766 73.7886 31.3498 73.6526 31.3497C73.5166 31.3497 73.3819 31.3764 73.2563 31.4284C73.1306 31.4804 73.0164 31.5567 72.9203 31.6528C72.8241 31.749 72.7478 31.8632 72.6958 31.9888L71.3613 35.2044C69.2983 28.2975 64.8192 22.3634 58.7424 18.4863C52.6655 14.6091 45.3965 13.0478 38.2635 14.0874C31.1305 15.1271 24.6097 18.6984 19.8924 24.1489C15.175 29.5993 12.5762 36.5651 12.5706 43.7734C12.5706 44.048 12.6796 44.3113 12.8738 44.5055C13.068 44.6996 13.3313 44.8087 13.6059 44.8087C13.8804 44.8087 14.1438 44.6996 14.3379 44.5055C14.5321 44.3113 14.6411 44.048 14.6411 43.7734C14.6394 36.9921 17.1035 30.4414 21.5743 25.3425C26.0451 20.2435 32.2174 16.9442 38.9408 16.0596C45.6643 15.1749 52.48 16.7652 58.1176 20.534C63.7552 24.3028 67.8301 29.993 69.5827 36.544L65.8556 34.577C65.6126 34.4488 65.3287 34.4223 65.0662 34.5035C64.8037 34.5846 64.5842 34.7668 64.4559 35.0098C64.3277 35.2528 64.3013 35.5367 64.3824 35.7992C64.4636 36.0617 64.6457 36.2812 64.8887 36.4095L70.4989 39.3714C70.6282 39.4568 70.7746 39.5131 70.9278 39.5364C71.0811 39.5597 71.2375 39.5495 71.3864 39.5065C71.5354 39.4635 71.6732 39.3887 71.7904 39.2873C71.9076 39.1858 72.0014 39.0602 72.0653 38.919L74.611 32.7839C74.6634 32.658 74.6904 32.5231 74.6905 32.3868C74.6905 32.2504 74.6637 32.1154 74.6115 31.9895C74.5592 31.8636 74.4826 31.7493 74.3861 31.653C74.2896 31.5568 74.175 31.4805 74.0489 31.4287Z" fill="#C10206"/>
<path d="M42.5938 57.2321C45.2557 57.2321 47.8578 56.4428 50.0711 54.9639C52.2843 53.4851 54.0094 51.3831 55.028 48.9239C56.0467 46.4646 56.3132 43.7585 55.7939 41.1478C55.2746 38.537 53.9928 36.1389 52.1106 34.2567C50.2283 32.3745 47.8302 31.0927 45.2195 30.5733C42.6088 30.054 39.9027 30.3206 37.4434 31.3392C34.9841 32.3579 32.8822 34.0829 31.4033 36.2962C29.9245 38.5095 29.1351 41.1116 29.1351 43.7734C29.1392 47.3416 30.5585 50.7625 33.0816 53.2856C35.6047 55.8087 39.0256 57.228 42.5938 57.2321ZM42.5938 32.3853C44.8462 32.3853 47.048 33.0532 48.9207 34.3046C50.7935 35.5559 52.2531 37.3345 53.1151 39.4154C53.977 41.4963 54.2025 43.7861 53.7631 45.9952C53.3237 48.2042 52.2391 50.2334 50.6465 51.8261C49.0538 53.4187 47.0246 54.5033 44.8155 54.9427C42.6065 55.3822 40.3167 55.1566 38.2358 54.2947C36.1549 53.4328 34.3763 51.9731 33.1249 50.1003C31.8736 48.2276 31.2057 46.0258 31.2057 43.7734C31.2093 40.7542 32.4102 37.8597 34.5451 35.7248C36.6801 33.5898 39.5746 32.3889 42.5938 32.3853Z" fill="#C10206"/>
<path d="M49.8408 44.8087H50.8761C51.1507 44.8087 51.414 44.6996 51.6082 44.5055C51.8023 44.3113 51.9114 44.048 51.9114 43.7734C51.9114 43.4989 51.8023 43.2355 51.6082 43.0414C51.414 42.8472 51.1507 42.7381 50.8761 42.7381H49.8408C49.5662 42.7381 49.3029 42.8472 49.1088 43.0414C48.9146 43.2355 48.8055 43.4989 48.8055 43.7734C48.8055 44.048 48.9146 44.3113 49.1088 44.5055C49.3029 44.6996 49.5662 44.8087 49.8408 44.8087Z" fill="#C10206"/>
<path d="M36.3821 43.7734C36.3821 43.4989 36.273 43.2355 36.0789 43.0414C35.8847 42.8472 35.6214 42.7381 35.3468 42.7381H34.3115C34.037 42.7381 33.7736 42.8472 33.5795 43.0414C33.3853 43.2355 33.2763 43.4989 33.2763 43.7734C33.2763 44.048 33.3853 44.3113 33.5795 44.5055C33.7736 44.6996 34.037 44.8087 34.3115 44.8087H35.3468C35.6214 44.8087 35.8847 44.6996 36.0789 44.5055C36.273 44.3113 36.3821 44.048 36.3821 43.7734Z" fill="#C10206"/>
<path d="M42.5938 53.091C42.8684 53.091 43.1317 52.9819 43.3259 52.7878C43.52 52.5936 43.6291 52.3303 43.6291 52.0557V51.0204C43.6291 50.7459 43.52 50.4825 43.3259 50.2884C43.1317 50.0942 42.8684 49.9851 42.5938 49.9851C42.3193 49.9851 42.0559 50.0942 41.8618 50.2884C41.6676 50.4825 41.5585 50.7459 41.5585 51.0204V52.0557C41.5585 52.3303 41.6676 52.5936 41.8618 52.7878C42.0559 52.9819 42.3193 53.091 42.5938 53.091Z" fill="#C10206"/>
<path d="M43.127 44.6607L48.3034 41.5548C48.4226 41.4861 48.5268 41.3944 48.6101 41.2849C48.6934 41.1755 48.754 41.0506 48.7885 40.9174C48.823 40.7843 48.8306 40.6456 48.8109 40.5095C48.7911 40.3734 48.7445 40.2426 48.6737 40.1247C48.6028 40.0068 48.5092 39.9042 48.3983 39.8229C48.2873 39.7416 48.1613 39.6832 48.0276 39.6512C47.8939 39.6191 47.7551 39.614 47.6193 39.6362C47.4836 39.6584 47.3537 39.7074 47.2371 39.7803L43.6291 41.9441V35.4912C43.6291 35.2166 43.52 34.9533 43.3259 34.7591C43.1317 34.5649 42.8684 34.4559 42.5938 34.4559C42.3193 34.4559 42.0559 34.5649 41.8618 34.7591C41.6676 34.9533 41.5585 35.2166 41.5585 35.4912V43.7734C41.5586 43.9567 41.6072 44.1366 41.6996 44.2949C41.7919 44.4532 41.9246 44.5841 42.0841 44.6743C42.2436 44.7646 42.4242 44.8108 42.6074 44.8084C42.7906 44.806 42.9699 44.755 43.127 44.6607Z" fill="#C10206"/>
<path d="M20.6458 39.653C20.4119 39.7007 20.2018 39.8278 20.0509 40.0127C19.8999 40.1976 19.8175 40.4289 19.8176 40.6676V46.8793C19.8175 47.118 19.8999 47.3493 20.0509 47.5342C20.2018 47.7191 20.4119 47.8461 20.6458 47.8939L24.6109 48.6869C25.0201 50.199 25.6232 51.6518 26.4051 53.0092L24.1658 56.3791C24.033 56.5782 23.9733 56.8172 23.9969 57.0555C24.0205 57.2937 24.1259 57.5163 24.2952 57.6856L28.6848 62.0742C28.854 62.2434 29.0767 62.3489 29.3149 62.3725C29.5531 62.3961 29.7921 62.3364 29.9913 62.2036L33.3601 59.958C34.7172 60.7398 36.1697 61.3428 37.6814 61.7522L38.4755 65.7173C38.5223 65.9516 38.6487 66.1624 38.8332 66.3141C39.0178 66.4659 39.2491 66.5491 39.488 66.5497H45.6997C45.9383 66.5497 46.1697 66.4673 46.3546 66.3164C46.5395 66.1655 46.6665 65.9553 46.7143 65.7215L47.5083 61.7563C49.02 61.3469 50.4725 60.7439 51.8296 59.9622L55.1984 62.2015C55.3976 62.3343 55.6366 62.394 55.8748 62.3704C56.113 62.3468 56.3357 62.2414 56.5049 62.0721L60.8946 57.6835C61.0638 57.5143 61.1693 57.2916 61.1929 57.0534C61.2164 56.8152 61.1568 56.5762 61.024 56.377L58.7784 53.0071C59.5603 51.6497 60.1634 50.1969 60.5726 48.6848L64.5377 47.8918C64.772 47.845 64.9828 47.7186 65.1345 47.534C65.2862 47.3495 65.3695 47.1182 65.3701 46.8793V40.6676C65.3701 40.4289 65.2877 40.1976 65.1368 40.0127C64.9859 39.8278 64.7757 39.7007 64.5419 39.653L60.5767 38.86C60.1675 37.3479 59.5645 35.8951 58.7826 34.5377L61.0219 31.1678C61.1547 30.9686 61.2144 30.7296 61.1908 30.4914C61.1672 30.2532 61.0618 30.0305 60.8925 29.8613L56.5029 25.4727C56.3336 25.3034 56.111 25.198 55.8727 25.1744C55.6345 25.1508 55.3955 25.2105 55.1963 25.3433L51.8275 27.5888C50.4704 26.8071 49.018 26.2041 47.5062 25.7947L46.7143 21.8254C46.6665 21.5916 46.5395 21.3814 46.3546 21.2305C46.1697 21.0795 45.9383 20.9971 45.6997 20.9972H39.488C39.2493 20.9971 39.018 21.0795 38.8331 21.2305C38.6482 21.3814 38.5211 21.5916 38.4734 21.8254L37.6793 25.7905C36.1676 26.1999 34.7152 26.803 33.358 27.5847L29.9892 25.3454C29.7901 25.2126 29.551 25.1529 29.3128 25.1765C29.0746 25.2001 28.8519 25.3055 28.6827 25.4748L24.2931 29.8634C24.1238 30.0326 24.0184 30.2553 23.9948 30.4935C23.9712 30.7317 24.0309 30.9707 24.1637 31.1699L26.4185 34.5532C25.6411 35.9061 25.0406 37.3531 24.6316 38.8589L20.6458 39.653ZM29.542 27.5402L32.7514 29.678C32.917 29.7884 33.111 29.8487 33.3101 29.8516C33.5091 29.8545 33.7048 29.8 33.8736 29.6946C35.3902 28.7459 37.0537 28.0556 38.7964 27.652C38.9907 27.6072 39.1679 27.5072 39.3067 27.3642C39.4455 27.2211 39.5401 27.041 39.5791 26.8455L40.3369 23.0677H44.8507L45.6065 26.8424C45.6455 27.0379 45.74 27.218 45.8789 27.3611C46.0177 27.5041 46.1949 27.6041 46.3892 27.6489C48.132 28.0532 49.7956 28.7441 51.312 29.6936C51.4808 29.799 51.6765 29.8535 51.8755 29.8506C52.0746 29.8476 52.2685 29.7874 52.4342 29.677L55.6436 27.5391L58.8333 30.7278L56.6944 33.9372C56.584 34.1029 56.5238 34.2968 56.5208 34.4959C56.5179 34.6949 56.5724 34.8906 56.6778 35.0594C57.6265 36.5764 58.3168 38.2402 58.7205 39.9833C58.7653 40.1775 58.8652 40.3547 59.0083 40.4936C59.1513 40.6324 59.3314 40.727 59.5269 40.7659L63.2995 41.5165V46.0304L59.5249 46.7851C59.3294 46.824 59.1492 46.9186 59.0062 47.0575C58.8631 47.1963 58.7632 47.3735 58.7184 47.5678C58.3141 49.3109 57.6231 50.9748 56.6737 52.4916C56.5683 52.6604 56.5138 52.8561 56.5167 53.0551C56.5196 53.2542 56.5799 53.4481 56.6903 53.6138L58.8292 56.8232L55.6384 60.0098L52.429 57.8719C52.2634 57.7616 52.0694 57.7013 51.8703 57.6984C51.6713 57.6954 51.4756 57.75 51.3068 57.8554C49.7902 58.8041 48.1267 59.4943 46.384 59.898C46.1897 59.9428 46.0125 60.0427 45.8737 60.1858C45.7349 60.3289 45.6403 60.509 45.6013 60.7045L44.8507 64.4791H40.3369L39.5811 60.7045C39.5422 60.509 39.4476 60.3289 39.3088 60.1858C39.1699 60.0427 38.9927 59.9428 38.7985 59.898C37.0557 59.4937 35.3921 58.8027 33.8757 57.8533C33.7068 57.7479 33.5112 57.6934 33.3121 57.6963C33.1131 57.6992 32.9191 57.7595 32.7534 57.8699L29.5441 60.0077L26.3564 56.818L28.4953 53.6086C28.6057 53.443 28.6659 53.249 28.6689 53.05C28.6718 52.8509 28.6173 52.6552 28.5119 52.4864C27.5632 50.9695 26.8729 49.3056 26.4693 47.5626C26.4245 47.3683 26.3245 47.1911 26.1815 47.0523C26.0384 46.9134 25.8583 46.8189 25.6628 46.7799L21.8881 46.0304V41.5165L25.6628 40.7618C25.8568 40.7195 26.0351 40.6238 26.1776 40.4855C26.3201 40.3472 26.4211 40.1718 26.4693 39.9791C26.8736 38.236 27.5645 36.5721 28.514 35.0553C28.6122 34.884 28.6626 34.6894 28.6597 34.4919C28.6567 34.2944 28.6007 34.1014 28.4974 33.9331L26.3585 30.7237L29.542 27.5402Z" fill="#C10206"/>
<path d="M45.9623 58.205C46.0164 58.9978 45.7203 59.4435 45.0963 59.5056C44.4325 59.5724 44.0138 59.1665 43.9374 58.3817C43.7782 56.7564 42.8295 55.7599 41.209 55.5147C40.2634 55.3715 39.8113 54.9608 39.902 54.324C39.9991 53.6427 40.5802 53.3386 41.5226 53.4787C44.0505 53.8544 45.7904 55.7058 45.9623 58.205Z" fill="#C10206"/>
</svg>
