<svg width="30" height="30" viewBox="0 0 30 30" fill="none" xmlns="http://www.w3.org/2000/svg">
<path d="M0 6.84835C0.134727 6.69235 0.260838 6.52838 0.404965 6.38193C2.25981 4.49317 4.11779 2.6068 5.97499 0.719629C6.40737 0.280272 6.62121 0.279476 7.04811 0.713262C7.85569 1.53387 8.66327 2.35528 9.47085 3.17589C9.98547 3.69883 9.98547 3.83971 9.47554 4.37219C9.44186 4.40721 9.40975 4.44462 9.33455 4.5274C9.50374 4.68101 9.66119 4.84259 9.83821 4.97631C9.91419 5.03441 10.0309 5.0551 10.1304 5.05988C10.8306 5.0957 11.5411 5.06068 12.2304 5.16733C13.3301 5.33687 14.2646 5.88606 15.0487 6.69076C15.3095 6.95819 15.568 7.22801 15.8516 7.52172C15.9456 7.43018 16.0263 7.35059 16.1085 7.27259C16.8213 6.59763 17.5075 5.88925 18.2571 5.25886C18.7999 4.802 19.4735 4.56321 20.166 4.39845C20.3313 4.35866 20.4801 4.24563 20.6689 4.14933C20.5529 4.02357 20.4895 3.95114 20.4229 3.88189C20.043 3.48949 20.0438 3.27618 20.4339 2.87821C21.0683 2.23191 21.7036 1.5872 22.3388 0.941696C22.5527 0.724405 22.7665 0.506318 22.9812 0.289823C23.3634 -0.0954111 23.5929 -0.097003 23.972 0.287435C25.6914 2.03372 27.4107 3.78001 29.13 5.52709C29.3439 5.74439 29.5608 5.95929 29.7716 6.17976C30.0723 6.49575 30.0786 6.74568 29.7755 7.05609C28.8888 7.96505 27.9974 8.86924 27.1044 9.77104C26.7833 10.095 26.5428 10.0934 26.2232 9.77183C26.141 9.68906 26.0814 9.58319 26.0164 9.49485C25.5809 9.80128 25.3608 10.1101 25.3937 10.6338C25.4626 11.7306 25.3733 12.8274 24.829 13.8072C24.5297 14.3453 24.1671 14.8619 23.7558 15.3163C23.0164 16.1338 22.2276 16.9058 21.4396 17.6755C21.236 17.8745 20.9712 18.0313 20.7072 18.1387C20.5318 18.2104 20.4926 18.2852 20.4934 18.4539C20.4989 19.3366 20.4934 20.2201 20.4965 21.1028C20.5012 22.2903 20.2208 23.3943 19.5957 24.4051C19.519 24.5285 19.5088 24.6941 19.45 24.9002C19.6412 24.9002 19.7743 24.8931 19.9059 24.9018C20.3038 24.9273 20.4918 25.1191 20.4934 25.5266C20.4981 26.816 20.4989 28.1063 20.4926 29.3957C20.4911 29.8008 20.2897 29.9982 19.8926 29.9982C17.1197 30.0006 14.3469 30.0006 11.5748 29.9982C11.1769 29.9982 10.9724 29.8064 10.9701 29.3989C10.9615 28.0991 10.9615 26.7993 10.9709 25.5004C10.9732 25.1127 11.1706 24.9281 11.5544 24.9018C11.679 24.8939 11.8043 24.9002 11.9351 24.9002C12.0111 24.4306 11.9852 24.0581 11.6061 23.7079C11.1338 23.2709 10.6975 22.7743 10.3317 22.2426C9.7121 21.3416 9.46301 20.3085 9.47789 19.2077C9.48651 18.5431 9.46614 17.8777 9.48573 17.2139C9.49356 16.9504 9.40348 16.7737 9.22646 16.5954C8.15726 15.5217 7.10294 14.4313 6.03139 13.3607C5.17524 12.5051 4.57445 11.5118 4.31205 10.3123C4.28072 10.1706 4.17184 10.0464 4.07314 9.86734C3.93763 10.0003 3.84442 10.0958 3.74729 10.1865C3.44807 10.4643 3.19429 10.4683 2.90447 10.1738C1.93239 9.18841 0.967372 8.19588 0 7.20493C0 7.08634 0 6.96695 0 6.84835ZM21.3621 4.91024C21.1294 5.05272 20.9015 5.28195 20.6375 5.33846C19.6208 5.55495 18.76 6.02933 18.0299 6.77353C16.2448 8.59305 14.4542 10.407 12.6667 12.2249C12.5915 12.3013 12.5147 12.3817 12.4599 12.4732C12.326 12.6961 12.3549 12.9142 12.539 13.0917C12.7254 13.2716 12.9409 13.2787 13.1523 13.1307C13.2315 13.075 13.3012 13.0025 13.3701 12.9333C14.0476 12.2464 14.7236 11.5587 15.4004 10.8718C15.4834 10.7874 15.5633 10.7007 15.6495 10.6203C15.9103 10.3775 16.1939 10.364 16.4038 10.5813C16.6082 10.793 16.5902 11.0883 16.3552 11.3502C16.3028 11.4091 16.2456 11.4632 16.19 11.5189C15.2649 12.4589 14.3406 13.3997 13.4155 14.3397C13.3466 14.4098 13.2745 14.4782 13.2142 14.5554C13.0333 14.787 13.0458 15.0656 13.2393 15.2503C13.4194 15.4222 13.6952 15.4254 13.9043 15.2535C13.9725 15.1977 14.0328 15.1317 14.0946 15.0688C15.0495 14.1033 16.0028 13.1355 16.9599 12.1724C17.0618 12.0697 17.1824 11.9296 17.3054 11.9169C17.4785 11.8994 17.719 11.9304 17.8231 12.0434C17.9273 12.1565 17.9367 12.4 17.9148 12.5775C17.9007 12.6937 17.766 12.802 17.6704 12.8999C16.7203 13.8701 15.7662 14.8372 14.8145 15.8058C14.7385 15.883 14.6555 15.9571 14.5999 16.0478C14.4651 16.2643 14.4706 16.4856 14.6531 16.671C14.8333 16.8541 15.0479 16.878 15.2633 16.7339C15.3597 16.6694 15.4435 16.5827 15.5257 16.4991C16.5002 15.5113 17.4722 14.5212 18.4482 13.5342C18.7138 13.266 19.0075 13.2405 19.2237 13.4515C19.4555 13.6775 19.4328 13.9688 19.1547 14.2593C18.9574 14.4655 18.7553 14.6669 18.5547 14.8706C17.7542 15.6849 16.9521 16.4975 16.1532 17.3125C15.8743 17.5967 15.8461 17.8984 16.067 18.118C16.2949 18.3449 16.5628 18.3107 16.8597 18.017C16.9083 17.9684 16.956 17.9191 17.0046 17.8697C18.5093 16.3407 20.0148 14.8109 21.5195 13.2827C21.5885 13.2127 21.655 13.1379 21.731 13.0774C21.9542 12.8999 22.237 12.9166 22.418 13.1116C22.5934 13.2994 22.6013 13.5685 22.4321 13.7873C22.3725 13.8653 22.3012 13.9338 22.2323 14.0038C21.4874 14.7624 20.7394 15.5169 19.9984 16.2794C19.743 16.5429 19.7352 16.8238 19.9529 17.0419C20.1558 17.2449 20.4448 17.2369 20.6814 16.9982C21.5462 16.1226 22.4164 15.2535 23.26 14.358C23.8467 13.7348 24.2195 12.9763 24.3081 12.1159C24.3762 11.4481 24.3692 10.7707 24.3723 10.0982C24.3739 9.78855 24.4561 9.54021 24.6895 9.33725C24.8822 9.1701 25.0608 8.98624 25.2206 8.83422C23.9086 7.49784 22.6201 6.18852 21.3621 4.91024ZM15.091 8.24522C14.78 7.91411 14.4722 7.55515 14.133 7.22961C13.5526 6.67245 12.8617 6.30075 12.0722 6.18295C11.5254 6.10176 10.9615 6.0556 10.4116 6.09221C9.75361 6.13599 9.22567 5.98317 8.83559 5.42522C8.78624 5.35438 8.71105 5.30184 8.69381 5.28433C7.39902 6.59922 6.11285 7.90695 4.85018 9.18921C4.97707 9.40093 5.19796 9.62538 5.24966 9.88486C5.46271 10.9522 5.95932 11.8405 6.71599 12.6022C8.12357 14.0198 9.51863 15.4493 10.9199 16.8732C11.0022 16.9568 11.0844 17.0443 11.18 17.112C11.4314 17.2911 11.762 17.1971 11.8944 16.9146C12.0158 16.6559 11.91 16.4569 11.7314 16.2754C11.1377 15.6729 10.5424 15.0704 9.95101 14.4655C9.66119 14.1686 9.62907 13.859 9.85623 13.6337C10.0842 13.4069 10.3748 13.4459 10.6748 13.7467C10.9387 14.0118 11.1988 14.28 11.462 14.5459C11.6508 14.7361 11.8411 14.9247 12.0228 15.1054C12.0886 14.7624 12.1489 14.448 12.2038 14.1638C12.0079 13.9728 11.78 13.8072 11.6257 13.5884C11.1855 12.9659 11.2826 12.1867 11.8583 11.5913C12.4732 10.9554 13.0991 10.3306 13.7578 9.66358C13.479 9.39535 13.2119 9.1502 12.9581 8.89152C12.68 8.60738 12.6612 8.30571 12.8899 8.08206C13.1124 7.86397 13.3912 7.88546 13.6654 8.15926C13.9223 8.41635 14.1675 8.68617 14.4103 8.94246C14.6578 8.68856 14.8819 8.45933 15.091 8.24522ZM18.5007 24.8835C18.3425 24.3375 18.6848 23.9745 18.9064 23.5623C19.2378 22.9462 19.4469 22.288 19.4571 21.582C19.4735 20.4422 19.4728 19.3016 19.472 18.1618C19.472 18.0719 19.4399 17.9644 19.385 17.8952C19.2456 17.7201 19.0858 17.5633 18.919 17.3826C18.8602 17.4383 18.7882 17.502 18.7208 17.5704C18.2986 17.9971 17.8835 18.4308 17.455 18.8503C17.0351 19.2618 16.5323 19.3987 15.973 19.2228C15.4059 19.0445 15.0612 18.6473 14.9281 18.0528C14.9085 17.9652 14.8035 17.8514 14.7189 17.8307C14.0664 17.6699 13.6638 17.272 13.515 16.6026C13.497 16.5222 13.4249 16.4251 13.3529 16.3932C13.2189 16.3343 13.067 16.3176 12.9095 16.2802C13.0395 16.9615 12.8868 17.5314 12.3385 17.9326C11.7385 18.3719 11.1205 18.3083 10.4829 17.888C10.4829 18.4181 10.4735 18.91 10.4852 19.4019C10.5064 20.3284 10.7578 21.1904 11.3327 21.9131C11.7542 22.4432 12.2437 22.9183 12.7153 23.4055C12.9064 23.6028 13.0051 23.817 12.9949 24.0931C12.9855 24.3558 12.9925 24.6201 12.9925 24.8843C14.8403 24.8835 16.6411 24.8835 18.5007 24.8835ZM21.431 3.37965C23.1691 5.14584 24.9261 6.93113 26.6658 8.69891C27.3379 8.01599 28.0319 7.31079 28.7071 6.6239C26.9713 4.8601 25.2135 3.07401 23.4723 1.30385C22.7986 1.98915 22.1054 2.69435 21.431 3.37965ZM3.31491 9.08016C5.05618 7.31079 6.81312 5.5255 8.53559 3.77524C7.87135 3.10028 7.17735 2.39508 6.51781 1.7241C4.78594 3.48392 3.03058 5.26762 1.29792 7.02903C1.96059 7.70319 2.64911 8.40282 3.31491 9.08016ZM19.4759 25.9612C16.967 25.9612 14.4957 25.9612 12.015 25.9612C12.015 26.9721 12.015 27.9646 12.015 28.9587C14.509 28.9587 16.9795 28.9587 19.4579 28.9587C19.4649 28.8672 19.4751 28.7987 19.4759 28.7303C19.4767 27.8189 19.4759 26.9076 19.4759 25.9612Z" fill="#C10206"/>
</svg>
