<svg width="30" height="30" viewBox="0 0 30 30" fill="none" xmlns="http://www.w3.org/2000/svg">
<path d="M29.5605 27.2268H27.7506V20.3707C27.7506 20.128 27.5538 19.9312 27.3111 19.9312C27.0684 19.9312 26.8717 20.128 26.8717 20.3707V27.2268H23.0156V12.1248H26.8717V18.3199C26.8717 18.5626 27.0684 18.7594 27.3111 18.7594C27.5538 18.7594 27.7506 18.5626 27.7506 18.3199V11.6854C27.7506 11.4427 27.5538 11.2459 27.3111 11.2459H22.5762C22.3335 11.2459 22.1367 11.4427 22.1367 11.6854V27.2268H21.1216V14.0529C21.1216 13.8103 20.9249 13.6135 20.6822 13.6135H15.9471C15.7044 13.6135 15.5076 13.8103 15.5076 14.0529V27.2268H14.4925V17.6043C14.4925 17.3616 14.2957 17.1649 14.053 17.1649H9.31787C9.07518 17.1649 8.87842 17.3616 8.87842 17.6043V27.2268H7.86328V20.4454C7.86328 20.2027 7.66652 20.006 7.42383 20.006H2.68863C2.44594 20.006 2.24918 20.2027 2.24918 20.4454V27.2268H0.439453C0.196758 27.2268 0 27.4235 0 27.6662V29.5605C0 29.8032 0.196758 30 0.439453 30H5.18555C5.42824 30 5.625 29.8032 5.625 29.5605C5.625 29.3179 5.42824 29.1211 5.18555 29.1211H0.878906V28.1057H29.1211V29.1211H7.23633C6.99363 29.1211 6.79688 29.3179 6.79688 29.5605C6.79688 29.8032 6.99363 30 7.23633 30H29.5605C29.8032 30 30 29.8032 30 29.5605V27.6662C30 27.4235 29.8032 27.2268 29.5605 27.2268ZM16.3865 14.4924H20.2427V27.2268H16.3865V14.4924ZM9.75727 18.0438H13.6135V27.2268H9.75727V18.0438ZM3.12809 20.8849H6.98432V27.2268H3.12809V20.8849Z" fill="#C10206"/>
<path d="M2.62969 16.0312H9.31758C9.70559 16.0312 10.0782 15.8674 10.34 15.5817L15.7874 9.63867H19.4982C19.8687 9.63867 20.217 9.49453 20.4787 9.23279L24.9779 4.73355V6.12182C24.9779 6.36451 25.1747 6.56127 25.4174 6.56127H27.3111C27.5538 6.56127 27.7506 6.36451 27.7506 6.12182V1.38633C27.7506 0.621914 27.1287 0 26.3643 0H21.6293C21.3866 0 21.1898 0.196758 21.1898 0.439453V2.33379C21.1898 2.57648 21.3866 2.77324 21.6293 2.77324H23.017L18.9243 6.86602H15.1775C14.7899 6.86602 14.4175 7.0299 14.1558 7.31549L8.70767 13.2586H7.4959C7.2532 13.2586 7.05645 13.4554 7.05645 13.698C7.05645 13.9407 7.2532 14.1375 7.4959 14.1375H8.90098C9.02414 14.1375 9.14168 14.0858 9.22488 13.995L14.8037 7.90939C14.8994 7.80492 15.0356 7.74498 15.1775 7.74498H19.1062C19.2227 7.74498 19.3345 7.69869 19.4169 7.61625L24.3886 2.64457C24.5143 2.51889 24.5519 2.32986 24.4839 2.16568C24.4158 2.00145 24.2556 1.89439 24.0779 1.89439H22.0687V0.878906H26.3642C26.644 0.878906 26.8716 1.10654 26.8716 1.38633V5.68242H25.8568V3.67266C25.8568 3.49494 25.7497 3.33469 25.5855 3.26666C25.4214 3.19875 25.2322 3.23625 25.1066 3.36193L19.8572 8.61129C19.7615 8.70703 19.6339 8.75977 19.4982 8.75977H15.5941C15.4709 8.75977 15.3534 8.81145 15.2702 8.90227L9.69199 14.9879C9.59625 15.0924 9.45979 15.1523 9.31758 15.1523H3.06914V14.1375H5.44512C5.68781 14.1375 5.88457 13.9407 5.88457 13.698C5.88457 13.4554 5.68781 13.2586 5.44512 13.2586H2.62969C2.38699 13.2586 2.19023 13.4554 2.19023 13.698V15.5918C2.19023 15.8345 2.38699 16.0312 2.62969 16.0312Z" fill="#C10206"/>
</svg>
