<svg width="30" height="30" viewBox="0 0 30 30" fill="none" xmlns="http://www.w3.org/2000/svg">
<path d="M15 3.3871C10.4642 3.3871 6.77419 7.07709 6.77419 11.6129C6.77419 16.1487 10.4642 19.8387 15 19.8387C19.5358 19.8387 23.2258 16.1487 23.2258 11.6129C23.2258 7.07709 19.5358 3.3871 15 3.3871ZM10.0819 16.9355H19.9181C18.6231 18.1326 16.8986 18.871 15 18.871C13.1014 18.871 11.3769 18.1326 10.0819 16.9355ZM13.173 13.6753C13.4298 14.4422 14.1473 15 15 15C15.8527 15 16.5702 14.4422 16.827 13.6753L18.3016 14.0965C18.9218 14.2737 19.3548 14.8481 19.3548 15.4926V15.9677H10.6452V15.4926C10.6452 14.8481 11.0782 14.2737 11.698 14.0965L13.173 13.6753ZM14.0323 12.9218C14.3389 13.0137 14.6638 13.0645 15 13.0645C15.3362 13.0645 15.6611 13.0137 15.9677 12.9218V13.0645C15.9677 13.5982 15.5337 14.0323 15 14.0323C14.4663 14.0323 14.0323 13.5982 14.0323 13.0645V12.9218ZM15 12.0968C13.666 12.0968 12.5806 11.0114 12.5806 9.67742V8.70968C12.5806 7.37572 13.666 6.29032 15 6.29032C16.334 6.29032 17.4194 7.37572 17.4194 8.70968V9.67742C17.4194 11.0114 16.334 12.0968 15 12.0968ZM20.3226 16.531V15.4926C20.3226 14.4178 19.601 13.4617 18.5676 13.1656L16.9355 12.6993V12.4528C17.8118 11.84 18.3871 10.8252 18.3871 9.67742V8.70968C18.3871 6.84247 16.8672 5.32258 15 5.32258C13.1328 5.32258 11.6129 6.84247 11.6129 8.70968V9.67742C11.6129 10.8252 12.1882 11.84 13.0645 12.4528V12.6993L11.4319 13.1656C10.399 13.4612 9.67742 14.4178 9.67742 15.4926V16.531C8.48026 15.236 7.74194 13.5115 7.74194 11.6129C7.74194 7.61081 10.9979 4.35484 15 4.35484C19.0021 4.35484 22.2581 7.61081 22.2581 11.6129C22.2581 13.5111 21.5197 15.236 20.3226 16.531Z" fill="#C10206"/>
<path d="M28.245 26.2302L26.6129 25.7638V25.5173C27.4892 24.9045 28.0645 23.8897 28.0645 22.7419V21.7742C28.0645 20.0067 26.7024 18.5525 24.973 18.402L23.9178 16.4656C24.2595 15.8385 24.5338 15.1755 24.7365 14.4871L26.6129 13.9044V9.3209L24.7365 8.73827C24.5338 8.05026 24.2588 7.38683 23.9174 6.75931L24.8326 5.02111L21.5918 1.78073L19.8531 2.69508C19.227 2.35415 18.5643 2.07961 17.8746 1.87642L17.2915 0H12.708L12.1258 1.87642C11.4362 2.07961 10.7735 2.35415 10.1474 2.69508L8.40868 1.78073L5.16783 5.02111L6.08312 6.75931C5.74171 7.38683 5.4667 8.05026 5.26399 8.73827L3.3871 9.32137V13.9049L5.26351 14.4875C5.46623 15.176 5.74053 15.839 6.08217 16.466L5.02701 18.4027C3.29755 18.5525 1.93548 20.0067 1.93548 21.7742V22.7419C1.93548 23.8897 2.51079 24.9045 3.3871 25.5173V25.7638L1.7545 26.2302C0.721554 26.5257 0 27.4824 0 28.5571V30H10.6452V28.5571C10.6452 27.4824 9.92361 26.5262 8.89018 26.2302L7.25806 25.7638V25.5173C8.13437 24.9045 8.70968 23.8897 8.70968 22.7419V21.7742C8.70968 21.6102 8.69408 21.4505 8.6714 21.2927L10.1469 20.5303C10.7744 20.8724 11.4374 21.1467 12.1258 21.3494L12.7085 23.2258H17.292L17.8746 21.3494C18.5631 21.1467 19.2261 20.8724 19.8536 20.5303L21.318 21.2991L21.3272 21.3028C21.3052 21.4574 21.2903 21.614 21.2903 21.7742V22.7419C21.2903 23.8897 21.8656 24.9045 22.7419 25.5173V25.7638L21.1093 26.2302C20.0764 26.5257 19.3548 27.4824 19.3548 28.5571V30H30V28.5571C30 27.4824 29.2784 26.5257 28.245 26.2302ZM23.7097 25.9863C24.0163 26.0782 24.3412 26.129 24.6774 26.129C25.0136 26.129 25.3385 26.0782 25.6452 25.9863V26.129C25.6452 26.6628 25.2111 27.0968 24.6774 27.0968C24.1437 27.0968 23.7097 26.6628 23.7097 26.129V25.9863ZM4.35484 25.9863C4.66151 26.0782 4.98638 26.129 5.32258 26.129C5.65879 26.129 5.98365 26.0782 6.29032 25.9863V26.129C6.29032 26.6628 5.8563 27.0968 5.32258 27.0968C4.78886 27.0968 4.35484 26.6628 4.35484 26.129V25.9863ZM9.67742 28.5571V29.0323H0.967742V28.5571C0.967742 27.9126 1.40082 27.3382 2.02054 27.161L3.49554 26.7398C3.75236 27.5067 4.4699 28.0645 5.32258 28.0645C6.17526 28.0645 6.8928 27.5067 7.14962 26.7398L8.62415 27.161C9.24434 27.3382 9.67742 27.9126 9.67742 28.5571ZM7.74194 22.7419C7.74194 24.0759 6.65653 25.1613 5.32258 25.1613C3.98863 25.1613 2.90323 24.0759 2.90323 22.7419V21.7742C2.90323 20.4402 3.98863 19.3548 5.32258 19.3548C6.65653 19.3548 7.74194 20.4402 7.74194 21.7742V22.7419ZM20.3462 19.696L19.9847 19.3355L19.662 19.5261C18.926 19.9601 18.1312 20.2897 17.2984 20.505L16.9355 20.5983V21.1093L16.5794 22.2581H13.421L13.0645 21.1093V20.5983L12.7016 20.505C11.8688 20.2897 11.074 19.9601 10.338 19.5261L10.0153 19.3355L9.65379 19.696L8.39568 20.359C7.96213 19.4222 7.11489 18.7162 6.08808 18.4776L6.91454 16.9617L7.27744 16.5976L7.08677 16.2749C6.65275 15.5401 6.32316 14.7451 6.10793 13.9113L6.0146 13.5484H5.50356L4.35484 13.1923V10.0339L5.50356 9.67742H6.0146L6.10793 9.31452C6.32316 8.48168 6.65275 7.68689 7.08677 6.95092L7.27744 6.62818L6.9169 6.2667L6.35671 5.20209L8.58918 2.96914L9.65379 3.52933L10.0153 3.89081L10.338 3.6992C11.0714 3.26566 11.8664 2.93654 12.7016 2.72083L13.0645 2.6275V2.11646L13.4206 0.967742H16.579L16.9355 2.11646V2.6275L17.2984 2.72083C18.1336 2.93654 18.9286 3.26613 19.662 3.6992L19.9847 3.89081L20.3462 3.52933L21.4108 2.96914L23.6433 5.20209L23.0831 6.2667L22.7226 6.62818L22.9132 6.95092C23.3472 7.68689 23.6768 8.48168 23.8921 9.31452L23.9854 9.67742H24.4964L25.6452 10.0335V13.1919L24.4964 13.5484H23.9854L23.8921 13.9113C23.6768 14.7451 23.3472 15.5401 22.9132 16.2749L22.7226 16.5976L23.0855 16.9617L23.9119 18.4776C22.8851 18.7162 22.0379 19.4217 21.6043 20.3585L20.3462 19.696ZM22.2581 22.7419V21.7742C22.2581 20.4402 23.3435 19.3548 24.6774 19.3548C26.0114 19.3548 27.0968 20.4402 27.0968 21.7742V22.7419C27.0968 24.0759 26.0114 25.1613 24.6774 25.1613C23.3435 25.1613 22.2581 24.0759 22.2581 22.7419ZM29.0323 29.0323H20.3226V28.5571C20.3226 27.9126 20.7557 27.3382 21.3754 27.161L22.8504 26.7398C23.1072 27.5067 23.8247 28.0645 24.6774 28.0645C25.5301 28.0645 26.2476 27.5067 26.5045 26.7398L27.979 27.161C28.5992 27.3382 29.0323 27.9126 29.0323 28.5571V29.0323Z" fill="#C10206"/>
</svg>
