<svg width="30" height="30" viewBox="0 0 30 30" fill="none" xmlns="http://www.w3.org/2000/svg">
<path d="M14.9997 4.57691C15.3233 4.57691 15.5857 4.28799 15.5857 3.93173V0.64518C15.5857 0.288912 15.3233 0 14.9997 0C14.6761 0 14.4138 0.288847 14.4138 0.64518V3.93173C14.4138 4.28799 14.6762 4.57691 14.9997 4.57691Z" fill="#C10206"/>
<path d="M10.5945 5.63674C10.7059 5.83139 10.8961 5.93798 11.0907 5.93798C11.1975 5.93798 11.3056 5.90585 11.4025 5.83856C11.6763 5.64861 11.7583 5.25022 11.5858 4.94872L10.0246 2.22123C9.85209 1.9198 9.49027 1.82941 9.21658 2.01941C8.94283 2.20935 8.8608 2.60775 9.0333 2.90924L10.5945 5.63674Z" fill="#C10206"/>
<path d="M18.5988 5.83875C18.6958 5.90591 18.8038 5.93798 18.9104 5.93798C19.1051 5.93798 19.2955 5.83127 19.4068 5.63649L20.9664 2.90899C21.1388 2.60743 21.0566 2.20916 20.7827 2.01922C20.5087 1.82947 20.1471 1.92006 19.9747 2.22148L18.4151 4.94898C18.2428 5.2506 18.325 5.64887 18.5988 5.83875Z" fill="#C10206"/>
<path d="M29.8111 15.1892L28.793 13.2088C28.6335 12.8986 28.276 12.7896 27.9946 12.9652C27.7129 13.1408 27.6139 13.5344 27.7733 13.8444L28.7909 15.8239C28.8419 15.9234 28.8287 16.0194 28.8162 16.0677C28.8043 16.1142 28.7713 16.2001 28.6852 16.2525L27.1162 17.2095C26.9768 17.2942 26.7949 17.2407 26.7189 17.0931L26.3203 16.3167C26.3186 16.3132 26.3167 16.31 26.315 16.3065L22.1941 8.28088C22.1432 8.18211 22.1561 8.08739 22.1683 8.03972C22.1801 7.99359 22.2128 7.90836 22.2989 7.8559L23.8698 6.89872C24.011 6.81265 24.1884 6.86491 24.2656 7.01549L25.184 8.80219C25.3434 9.11233 25.701 9.2213 25.9825 9.04587C26.2642 8.87039 26.3632 8.4767 26.2038 8.16662L25.2858 6.3807C24.8943 5.61642 24.0048 5.34228 23.3027 5.76959L21.7318 6.72678C21.3919 6.93362 21.1464 7.2755 21.0404 7.68964C20.9405 8.0801 20.9762 8.48773 21.1399 8.84548L20.2746 9.12162C19.9059 9.23904 19.6822 9.30272 19.5581 9.30272C19.5575 9.30272 19.5571 9.30272 19.5566 9.30272C19.4711 9.3024 19.3779 9.26646 19.1118 9.15549C18.9911 9.10517 18.8408 9.04245 18.6561 8.97148L17.123 8.38134C16.2751 8.05526 15.8926 8.07281 15.3386 8.12849L12.7244 8.38611C11.5326 8.50237 10.7728 8.79838 10.3534 9.31175L8.86361 8.83645C9.02393 8.48024 9.05832 8.07656 8.9593 7.68964C8.85336 7.27576 8.60797 6.93394 8.26842 6.7271L6.69846 5.76946C5.9958 5.34177 5.10571 5.61603 4.71413 6.38012L0.190457 15.1883C-0.00319482 15.5637 -0.0511245 16.0004 0.0556333 16.4179C0.161688 16.8325 0.407195 17.1747 0.746453 17.3813L2.31641 18.3388C2.54088 18.4754 2.78475 18.5403 3.0254 18.5403C3.53663 18.5403 4.03362 18.2475 4.30075 17.7282L4.46663 17.4051C4.91932 17.6245 5.29942 17.9433 5.55846 18.3207C5.30545 18.6463 5.14608 19.048 5.10137 19.485C5.04231 20.0629 5.19055 20.6299 5.51879 21.0818C5.84422 21.5299 6.30957 21.8126 6.82994 21.8792C6.77487 22.4522 6.92369 23.0136 7.24942 23.4605C7.58609 23.924 8.06193 24.1944 8.55969 24.2582C8.50484 24.8304 8.65314 25.3913 8.97787 25.8385C9.30312 26.2875 9.76859 26.5708 10.2895 26.6374C10.2344 27.2108 10.3832 27.7726 10.7089 28.2196C11.0971 28.7541 11.6703 29.0323 12.2489 29.0323C12.6809 29.0323 13.1159 28.8772 13.479 28.5578L14.7059 27.4769C14.8033 27.3912 14.8918 27.2966 14.9715 27.1947L15.6723 27.8111C16.0347 28.1295 16.4687 28.2842 16.9 28.2842C17.4789 28.2841 18.053 28.0055 18.4418 27.4705C18.6467 27.1885 18.7764 26.8665 18.835 26.5342C19.0399 26.6123 19.2563 26.6526 19.4768 26.6525C19.5508 26.6525 19.6252 26.648 19.6998 26.6389C20.2248 26.5747 20.6943 26.2904 21.0205 25.84C21.3468 25.3923 21.4956 24.831 21.4406 24.2581C21.938 24.1941 22.414 23.9238 22.7517 23.4605C23.0881 22.9974 23.2231 22.4274 23.1702 21.8791C23.6903 21.8124 24.1554 21.5297 24.4801 21.0827C24.8085 20.632 24.9574 20.0658 24.8992 19.4884C24.8551 19.05 24.6956 18.6469 24.4421 18.3205C24.7004 17.9432 25.0797 17.624 25.5327 17.4047L25.6989 17.7284C25.9659 18.2476 26.4626 18.5403 26.974 18.5403C27.2147 18.5402 27.4589 18.4753 27.6836 18.3385L29.2526 17.3815C29.5918 17.175 29.8372 16.8333 29.9436 16.4194C30.051 16.0023 30.004 15.5657 29.8111 15.1892ZM3.28086 17.0928C3.20469 17.2409 3.02264 17.2943 2.88383 17.2097L1.31393 16.2523C1.22821 16.2 1.19551 16.1145 1.18356 16.0681C1.17132 16.02 1.15825 15.9246 1.20993 15.8246L5.7343 7.01465C5.7861 6.91355 5.88371 6.85691 5.98508 6.85691C6.03442 6.85691 6.08457 6.87026 6.13086 6.89846L7.70035 7.85577C7.70053 7.8559 7.7007 7.85603 7.70088 7.8561C7.78678 7.90842 7.81941 7.99365 7.83125 8.03978C7.84344 8.08746 7.85633 8.18217 7.80482 8.28205L3.28086 17.0928ZM7.55668 20.4128C7.39145 20.5586 7.18279 20.6245 6.96957 20.5983C6.75623 20.5723 6.5661 20.4578 6.43403 20.276C6.30166 20.0937 6.24201 19.8641 6.26598 19.6293C6.28983 19.3956 6.39383 19.1873 6.55989 19.0418L8.75352 17.111C9.09781 16.8084 9.60178 16.8706 9.87693 17.249C10.0092 17.4311 10.0689 17.6604 10.045 17.8945C10.0212 18.1277 9.91719 18.3358 9.75207 18.4805C9.74844 18.4836 9.74533 18.4872 9.74181 18.4905L7.55721 20.4124C7.55703 20.4125 7.55686 20.4127 7.55668 20.4128ZM8.16395 22.6538C8.0317 22.4723 7.97193 22.2436 7.99555 22.0098C8.01916 21.7758 8.12328 21.5665 8.28863 21.4205L8.28881 21.4204C8.28893 21.4203 8.28904 21.4202 8.28916 21.4201C8.28922 21.4201 8.28922 21.42 8.28928 21.42L11.449 18.6403C11.7932 18.3376 12.2973 18.3994 12.5724 18.7783C12.7045 18.9602 12.7643 19.1892 12.7406 19.4231C12.717 19.6573 12.6126 19.8666 12.4468 20.0124L9.28789 22.7911C8.94324 23.094 8.43934 23.0329 8.16395 22.6538ZM10.4291 25.3565C10.2158 25.3304 10.0258 25.2158 9.89357 25.0332C9.76144 24.8514 9.70174 24.6223 9.72535 24.3884C9.74902 24.1544 9.85326 23.9453 10.0188 23.7995C10.0189 23.7993 10.0191 23.7992 10.0192 23.7991L12.2058 21.8757C12.2084 21.8735 12.2112 21.8716 12.2138 21.8693C12.5571 21.5667 13.061 21.6283 13.3364 22.0062C13.4688 22.1884 13.5285 22.4181 13.5045 22.6528C13.4806 22.8866 13.3766 23.0949 13.2106 23.2404L11.017 25.1711C10.8513 25.3169 10.6424 25.3824 10.4291 25.3565ZM14.268 25.8802C14.2443 26.1142 14.1402 26.3231 13.9743 26.4689L12.7474 27.55C12.4027 27.8529 11.8988 27.792 11.6236 27.4129C11.4913 27.2315 11.4315 27.0026 11.4551 26.7683C11.4787 26.5341 11.5827 26.3251 11.7478 26.1799C11.7479 26.1798 11.7482 26.1796 11.7484 26.1795L12.975 25.0998C12.9756 25.0992 12.9763 25.0988 12.9769 25.0983C13.3213 24.7957 13.8253 24.8577 14.1004 25.2363C14.2322 25.4178 14.2918 25.6464 14.268 25.8802ZM23.5655 20.2759C23.4335 20.4578 23.2433 20.5723 23.03 20.5983C22.8169 20.6247 22.6081 20.5587 22.4429 20.4128C22.4428 20.4128 22.4427 20.4127 22.4426 20.4127C22.4425 20.4126 22.4424 20.4125 22.4424 20.4125L20.8745 19.0331C20.6216 18.8107 20.2529 18.8561 20.051 19.1344C19.8491 19.4128 19.8902 19.8188 20.143 20.0412L21.7103 21.42C22.0542 21.7232 22.1108 22.277 21.8372 22.6537C21.5611 23.0326 21.0571 23.0942 20.7131 22.7908L19.0124 21.2964C18.7595 21.0742 18.3908 21.1198 18.189 21.3983C17.9872 21.6768 18.0285 22.0827 18.2815 22.305L19.9814 23.7986C20.147 23.9447 20.2512 24.1541 20.2749 24.3884C20.2985 24.6222 20.2388 24.851 20.1054 25.0339C19.9736 25.2158 19.7837 25.3303 19.5704 25.3565C19.357 25.3823 19.1481 25.3167 18.983 25.1716L18.1368 24.4264C18.1353 24.4252 18.134 24.4238 18.1326 24.4225L17.2839 23.6755C17.0311 23.4529 16.6624 23.4981 16.4604 23.7763C16.4352 23.8111 16.4136 23.8479 16.396 23.8861C16.3111 24.0687 16.3125 24.2828 16.3921 24.4624C16.429 24.5455 16.4821 24.6215 16.552 24.6831L17.4029 25.4323C17.7444 25.736 17.8003 26.288 17.5268 26.6644C17.2516 27.0432 16.7476 27.1051 16.4035 26.8028L15.4381 25.9537C15.4783 25.4014 15.3297 24.8629 15.0154 24.4302C14.8201 24.1613 14.5778 23.9577 14.3117 23.8211C14.5067 23.5233 14.6305 23.1733 14.669 22.797C14.728 22.2192 14.5798 21.6522 14.251 21.1995C14.0555 20.9314 13.8135 20.7282 13.548 20.5919C13.7434 20.2932 13.8672 19.9425 13.9052 19.5657C13.9635 18.9892 13.8152 18.4233 13.4875 17.9721C12.9237 17.196 11.9703 16.96 11.1768 17.3309C11.1133 17.0097 10.9835 16.7067 10.7919 16.4429C10.1135 15.5095 8.87117 15.3568 8.02209 16.1027L6.45319 17.4836C6.0984 16.9851 5.61612 16.5716 5.04588 16.2768L8.27316 9.99138L9.99148 10.5396C9.99933 10.6408 10.0142 10.7473 10.0391 10.8601C10.4551 12.7432 12.0297 13.6207 14.1486 13.1505C15.934 12.7549 16.669 13.3442 18.1328 14.518C18.2847 14.6397 18.4425 14.7662 18.6077 14.8965C19.6604 15.7281 20.7854 16.7056 21.5397 17.3682L23.4417 19.0419C23.6069 19.1871 23.7109 19.3961 23.7345 19.6306C23.7581 19.8648 23.6984 20.0937 23.5655 20.2759ZM23.5473 17.4832L22.271 16.36C21.5063 15.6883 20.3654 14.6971 19.2905 13.8479C19.1276 13.7195 18.9723 13.5949 18.8227 13.475C17.3048 12.2579 16.2077 11.3785 13.9174 11.8857C13.2164 12.0413 11.5463 12.2231 11.1779 10.5555C11.126 10.32 11.1787 10.2391 11.2011 10.2046C11.2795 10.0844 11.5947 9.79164 12.8281 9.67138L15.445 9.4135C15.8715 9.37066 16.0854 9.34911 16.7363 9.59944L18.2695 10.1896C18.44 10.2552 18.5763 10.312 18.6966 10.3622C19.4349 10.6701 19.6305 10.67 20.6004 10.3609L21.7308 10.0003L24.9537 16.2772C24.3833 16.5718 23.9015 16.9849 23.5473 17.4832Z" fill="#C10206"/>
<path d="M26.9865 11.6515C27.3101 11.6515 27.5725 11.3617 27.5725 11.0054C27.5725 10.649 27.3101 10.3602 26.9865 10.3602C26.663 10.3602 26.4006 10.6491 26.4006 11.0054V11.0072C26.4006 11.3635 26.663 11.6515 26.9865 11.6515Z" fill="#C10206"/>
</svg>
