<svg width="181" height="180" viewBox="0 0 181 180" fill="none" xmlns="http://www.w3.org/2000/svg">
<circle cx="90.5" cy="90" r="90" fill="#8B0000" fill-opacity="0.1"/>
<path d="M133.759 80.25H133.727L115.767 87.9193L91.1926 98.4126C91.0966 98.453 90.9936 98.4741 90.8894 98.4746C90.7852 98.4751 90.682 98.4551 90.5856 98.4157L65.2324 87.8974L46.8304 80.2625L46.8023 80.25H46.7709C46.4806 80.2503 46.2022 80.3658 45.9969 80.5711C45.7916 80.7764 45.6761 81.0548 45.6758 81.3452V128.907C45.6761 129.197 45.7916 129.476 45.9969 129.681C46.2022 129.886 46.4806 130.002 46.7709 130.002H133.759C134.049 130.002 134.327 129.886 134.533 129.681C134.738 129.476 134.854 129.197 134.854 128.907V81.3452C134.854 81.0548 134.738 80.7764 134.533 80.5711C134.327 80.3658 134.049 80.2503 133.759 80.25Z" fill="white"/>
<path d="M133.832 80.6139C133.8 80.6139 133.769 80.6041 133.743 80.5859L90.4742 50.4525C90.3425 50.3612 90.186 50.3124 90.0258 50.3127C89.8656 50.313 89.7093 50.3623 89.5779 50.454L46.6212 80.5855C46.5872 80.6093 46.5452 80.6186 46.5043 80.6114C46.4635 80.6042 46.4272 80.5811 46.4034 80.5472C46.3796 80.5132 46.3702 80.4712 46.3773 80.4304C46.3845 80.3895 46.4075 80.3532 46.4415 80.3293L89.3982 50.1978C89.5822 50.0694 89.801 50.0004 90.0253 50C90.2496 49.9996 90.4687 50.0679 90.653 50.1957L133.921 80.329C133.949 80.3481 133.969 80.3753 133.98 80.4069C133.991 80.4384 133.991 80.4725 133.981 80.5043C133.971 80.5361 133.951 80.5639 133.924 80.5836C133.898 80.6033 133.865 80.6139 133.832 80.6139L133.832 80.6139Z" fill="#3F3D56"/>
<path d="M49.168 81.6071L90.1605 51.2266L131.464 83.7688L92.2725 107.002L70.995 102.152L49.168 81.6071Z" fill="#E6E6E6"/>
<path d="M72.8209 121.388H52.5699C52.4455 121.389 52.3223 121.365 52.2073 121.317C52.0923 121.27 51.9878 121.2 51.8997 121.113C51.8115 121.025 51.7416 120.921 51.6938 120.806C51.646 120.691 51.6213 120.568 51.6211 120.444C51.6209 120.319 51.6452 120.196 51.6927 120.081C51.7402 119.966 51.8098 119.862 51.8977 119.774C51.9855 119.686 52.0899 119.616 52.2048 119.568C52.3196 119.521 52.4428 119.496 52.5671 119.496H72.8209C72.9453 119.496 73.0685 119.52 73.1835 119.567C73.2985 119.615 73.403 119.684 73.4912 119.772C73.5793 119.86 73.6492 119.964 73.697 120.079C73.7448 120.193 73.7695 120.316 73.7697 120.441C73.7699 120.565 73.7456 120.688 73.6981 120.803C73.6507 120.918 73.581 121.023 73.4931 121.111C73.4053 121.199 73.3009 121.268 73.1861 121.316C73.0712 121.364 72.9481 121.388 72.8237 121.388H72.8209Z" fill="#C10206"/>
<path d="M59.8355 117.4H52.5699C52.4455 117.4 52.3223 117.376 52.2073 117.329C52.0923 117.282 51.9878 117.212 51.8997 117.124C51.8115 117.037 51.7416 116.932 51.6938 116.818C51.646 116.703 51.6213 116.58 51.6211 116.455C51.6209 116.331 51.6452 116.208 51.6927 116.093C51.7402 115.978 51.8098 115.873 51.8977 115.785C51.9855 115.697 52.0899 115.628 52.2048 115.58C52.3196 115.532 52.4428 115.508 52.5671 115.508H59.8355C60.0862 115.508 60.3267 115.607 60.5041 115.784C60.6815 115.962 60.7814 116.202 60.7818 116.453C60.7821 116.703 60.683 116.944 60.5061 117.121C60.3292 117.299 60.089 117.399 59.8383 117.4H59.8355Z" fill="#C10206"/>
<path d="M90.6363 98.5316C90.4824 98.5318 90.3299 98.5019 90.1874 98.4437L64.9062 87.9538V55.1186C64.9066 54.8283 65.0221 54.5499 65.2274 54.3446C65.4327 54.1393 65.7111 54.0238 66.0014 54.0234H114.502C114.792 54.0238 115.07 54.1393 115.276 54.3446C115.481 54.5499 115.596 54.8283 115.597 55.1186V87.9767L115.549 87.997L91.0988 98.4386C90.9524 98.5001 90.7951 98.5317 90.6363 98.5316Z" fill="#C10206"/>
<path d="M133.583 80.25H133.552L115.591 87.9193L91.0169 98.4126C90.9208 98.453 90.8178 98.4741 90.7136 98.4746C90.6095 98.4751 90.5062 98.4551 90.4098 98.4157L65.0566 87.8974L46.6546 80.2625L46.6265 80.25H46.5952C46.3048 80.2503 46.0264 80.3658 45.8211 80.5711C45.6158 80.7764 45.5003 81.0548 45.5 81.3452V128.907C45.5003 129.197 45.6158 129.476 45.8211 129.681C46.0264 129.886 46.3048 130.002 46.5952 130.002H133.583C133.873 130.002 134.152 129.886 134.357 129.681C134.562 129.476 134.678 129.197 134.678 128.907V81.3452C134.678 81.0548 134.562 80.7764 134.357 80.5711C134.152 80.3658 133.873 80.2503 133.583 80.25ZM134.365 128.907C134.365 129.114 134.283 129.313 134.136 129.46C133.989 129.607 133.79 129.689 133.583 129.689H46.5952C46.3877 129.689 46.1888 129.607 46.0421 129.46C45.8954 129.313 45.813 129.114 45.8129 128.907V81.3452C45.8132 81.1429 45.8916 80.9485 46.0319 80.8027C46.1721 80.657 46.3633 80.571 46.5654 80.5629L65.0566 88.2354L90.2894 98.7052C90.5625 98.8163 90.8686 98.8146 91.1405 98.7005L115.591 88.2588L133.614 80.5629C133.816 80.5716 134.007 80.6578 134.147 80.8035C134.286 80.9492 134.365 81.1432 134.365 81.3452L134.365 128.907Z" fill="#3F3D56"/>
<path d="M86.8145 66.3157H69.6049C69.2733 66.3151 68.9555 66.183 68.7213 65.9483C68.487 65.7137 68.3555 65.3957 68.3555 65.0641C68.3555 64.7325 68.487 64.4145 68.7213 64.1799C68.9555 63.9452 69.2733 63.8131 69.6049 63.8125H86.8145C87.1461 63.8131 87.4638 63.9452 87.6981 64.1799C87.9323 64.4145 88.0639 64.7325 88.0639 65.0641C88.0639 65.3957 87.9323 65.7137 87.6981 65.9483C87.4638 66.183 87.1461 66.3151 86.8145 66.3157Z" fill="white"/>
<path d="M77.899 61.0657H69.6071C69.2751 61.0657 68.9568 60.9338 68.7221 60.6991C68.4873 60.4644 68.3555 60.1461 68.3555 59.8141C68.3555 59.4822 68.4873 59.1638 68.7221 58.9291C68.9568 58.6944 69.2751 58.5625 69.6071 58.5625H77.899C78.2309 58.5625 78.5493 58.6944 78.784 58.9291C79.0187 59.1638 79.1506 59.4822 79.1506 59.8141C79.1506 60.1461 79.0187 60.4644 78.784 60.6991C78.5493 60.9338 78.2309 61.0657 77.899 61.0657Z" fill="white"/>
<path d="M103.238 78.9056H76.9547C76.6228 78.9056 76.3044 78.7737 76.0697 78.539C75.835 78.3042 75.7031 77.9859 75.7031 77.6539C75.7031 77.322 75.835 77.0036 76.0697 76.7689C76.3044 76.5342 76.6228 76.4023 76.9547 76.4023H103.238C103.57 76.4023 103.889 76.5342 104.123 76.7689C104.358 77.0036 104.49 77.322 104.49 77.6539C104.49 77.9859 104.358 78.3042 104.123 78.539C103.889 78.7737 103.57 78.9056 103.238 78.9056Z" fill="white"/>
<path d="M103.237 84.679H76.953C76.7885 84.6793 76.6255 84.6471 76.4734 84.5843C76.3213 84.5216 76.183 84.4294 76.0666 84.3132C75.9501 84.1969 75.8577 84.0589 75.7947 83.9069C75.7317 83.7549 75.6992 83.5919 75.6992 83.4274C75.6992 83.2628 75.7317 83.0999 75.7947 82.9479C75.8577 82.7959 75.9501 82.6578 76.0666 82.5416C76.183 82.4253 76.3213 82.3332 76.4734 82.2704C76.6255 82.2077 76.7885 82.1755 76.953 82.1758H103.237C103.401 82.1755 103.564 82.2077 103.716 82.2704C103.868 82.3332 104.007 82.4253 104.123 82.5416C104.24 82.6578 104.332 82.7959 104.395 82.9479C104.458 83.0999 104.491 83.2628 104.491 83.4274C104.491 83.5919 104.458 83.7549 104.395 83.9069C104.332 84.0589 104.24 84.1969 104.123 84.3132C104.007 84.4294 103.868 84.5216 103.716 84.5843C103.564 84.6471 103.401 84.6793 103.237 84.679Z" fill="white"/>
</svg>
