<svg width="50" height="50" viewBox="0 0 50 50" fill="none" xmlns="http://www.w3.org/2000/svg">
<path d="M25 50C38.8071 50 50 38.8071 50 25C50 11.1929 38.8071 0 25 0C11.1929 0 0 11.1929 0 25C0 38.8071 11.1929 50 25 50Z" fill="#1877F2"/>
<path d="M32.213 26.8204L33.0734 21.2075H27.6911V17.5651C27.6911 16.0295 28.4429 14.5328 30.8537 14.5328H33.3008V9.75425C33.3008 9.75425 31.0799 9.375 28.9567 9.375C24.5239 9.375 21.6266 12.0631 21.6266 16.9296V21.2075H16.6992V26.8204H21.6266V40.3891C22.6146 40.5442 23.6273 40.625 24.6589 40.625C25.6904 40.625 26.7031 40.5442 27.6911 40.3891V26.8204H32.213Z" fill="white"/>
</svg>
