<svg width="50" height="50" viewBox="0 0 50 50" fill="none" xmlns="http://www.w3.org/2000/svg">
<path d="M25 50C38.8071 50 50 38.8071 50 25C50 11.1929 38.8071 0 25 0C11.1929 0 0 11.1929 0 25C0 38.8071 11.1929 50 25 50Z" fill="url(#paint0_linear_2458_7050)"/>
<path d="M30.3111 11.1113H19.7C14.9666 11.1113 11.1222 14.9558 11.1222 19.6891V30.3002C11.1222 35.0336 14.9666 38.878 19.7 38.878H30.3111C35.0444 38.878 38.8889 35.0336 38.8889 30.3002V19.6891C38.8889 14.9558 35.0444 11.1113 30.3111 11.1113ZM35.7889 30.3113C35.7889 33.3335 33.3333 35.8002 30.3 35.8002H19.6889C16.6666 35.8002 14.2 33.3447 14.2 30.3113V19.7002C14.2 16.678 16.6555 14.2113 19.6889 14.2113H30.3C33.3222 14.2113 35.7889 16.6669 35.7889 19.7002V30.3113Z" fill="white"/>
<path d="M25 17.8999C21.0889 17.8999 17.9 21.0888 17.9 24.9999C17.9 28.911 21.0889 32.0999 25 32.0999C28.9111 32.0999 32.1 28.911 32.1 24.9999C32.1 21.0888 28.9111 17.8999 25 17.8999ZM25 29.311C22.6222 29.311 20.6889 27.3777 20.6889 24.9999C20.6889 22.6221 22.6222 20.6888 25 20.6888C27.3778 20.6888 29.3111 22.6221 29.3111 24.9999C29.3111 27.3777 27.3778 29.311 25 29.311Z" fill="white"/>
<path d="M32.6408 18.6783C33.2949 18.5722 33.7392 17.956 33.6332 17.3019C33.5271 16.6477 32.9109 16.2034 32.2568 16.3095C31.6027 16.4155 31.1583 17.0317 31.2644 17.6859C31.3704 18.34 31.9867 18.7843 32.6408 18.6783Z" fill="white"/>
<defs>
<linearGradient id="paint0_linear_2458_7050" x1="5.96433" y1="44.0357" x2="41.4921" y2="8.50789" gradientUnits="userSpaceOnUse">
<stop stop-color="#FEE411"/>
<stop offset="0.0518459" stop-color="#FEDB16"/>
<stop offset="0.1381" stop-color="#FEC125"/>
<stop offset="0.2481" stop-color="#FE983D"/>
<stop offset="0.3762" stop-color="#FE5F5E"/>
<stop offset="0.5" stop-color="#FE2181"/>
<stop offset="1" stop-color="#9000DC"/>
</linearGradient>
</defs>
</svg>
