<svg width="24" height="25" viewBox="0 0 24 25" fill="none" xmlns="http://www.w3.org/2000/svg">
<path d="M16.2498 10.1923C16.4487 10.1923 16.6395 10.1113 16.7801 9.96701C16.9207 9.82275 16.9998 9.62709 16.9998 9.42308V8.78754C16.9976 7.7569 16.6055 6.76736 15.906 6.02747C15.2065 5.28758 14.2542 4.85512 13.25 4.82123V3.26923C13.25 3.06522 13.1709 2.86956 13.0303 2.7253C12.8897 2.58104 12.6989 2.5 12.5 2.5C12.3011 2.5 12.1103 2.58104 11.9697 2.7253C11.8291 2.86956 11.75 3.06522 11.75 3.26923V4.82123C10.8605 4.8503 10.0078 5.19271 9.33546 5.79085C8.66311 6.38899 8.2121 7.20638 8.05829 8.10553C7.90448 9.00468 8.05724 9.93073 8.4909 10.7279C8.92455 11.5251 9.61263 12.1448 10.4394 12.4828L14.0036 13.9458C14.5171 14.1565 14.9431 14.5441 15.2083 15.0421C15.4735 15.54 15.5613 16.117 15.4567 16.6741C15.3521 17.2313 15.0616 17.7336 14.6351 18.0949C14.2086 18.4562 13.6728 18.6538 13.1196 18.6538H11.8804C11.2493 18.6531 10.6443 18.3957 10.1981 17.938C9.75188 17.4803 9.50087 16.8597 9.50016 16.2125V15.5769C9.50016 15.3729 9.42115 15.1773 9.2805 15.033C9.13986 14.8887 8.9491 14.8077 8.7502 14.8077C8.5513 14.8077 8.36054 14.8887 8.2199 15.033C8.07925 15.1773 8.00024 15.3729 8.00024 15.5769V16.2125C8.00238 17.2431 8.39452 18.2326 9.09403 18.9725C9.79353 19.7124 10.7458 20.1449 11.75 20.1788V21.7308C11.75 21.9348 11.8291 22.1304 11.9697 22.2747C12.1103 22.419 12.3011 22.5 12.5 22.5C12.6989 22.5 12.8897 22.419 13.0303 22.2747C13.1709 22.1304 13.25 21.9348 13.25 21.7308V20.1788C14.1395 20.1497 14.9922 19.8073 15.6645 19.2091C16.3369 18.611 16.7879 17.7936 16.9417 16.8945C17.0955 15.9953 16.9428 15.0693 16.5091 14.2721C16.0754 13.4749 15.3874 12.8552 14.5606 12.5172L10.9964 11.0542C10.4829 10.8435 10.0569 10.4559 9.79171 9.95795C9.52654 9.46005 9.43871 8.88297 9.54331 8.32585C9.64791 7.76874 9.93842 7.26639 10.3649 6.90512C10.7914 6.54384 11.3272 6.3462 11.8804 6.34615H13.1196C13.7507 6.34689 14.3557 6.60434 14.8019 7.06203C15.2481 7.51972 15.4991 8.14027 15.4998 8.78754V9.42308C15.4998 9.62709 15.5789 9.82275 15.7195 9.96701C15.8601 10.1113 16.0509 10.1923 16.2498 10.1923Z" fill="#13CD7F"/>
</svg>
