<svg width="50" height="50" viewBox="0 0 50 50" fill="none" xmlns="http://www.w3.org/2000/svg">
<g clip-path="url(#clip0_2458_7063)">
<path d="M50.0012 25C50.0012 38.8066 38.8078 50 25 50H24.9532C11.1675 49.9741 0 38.7881 0 25C0 11.2119 11.1675 0.0246415 24.9532 0H25C38.8078 0 50.0012 11.1897 50.0012 25Z" fill="black"/>
<path d="M24.9532 0V50C11.1675 49.9741 0 38.7881 0 25C0 11.2119 11.1675 0.0246415 24.9532 0Z" fill="#0C0C0C"/>
<path d="M38.6033 18.0792L38.5725 23.201C37.5744 23.1888 36.5815 23.0555 35.6155 22.8042C34.1253 22.4149 32.7197 21.7537 31.4696 20.8539C31.4696 21.3775 31.477 22.1586 31.477 23.1086C31.477 24.3727 31.477 25.091 31.4696 25.8536C31.4474 30.5651 31.5645 31.4768 31.1505 33.3397C31.0644 33.7889 30.9466 34.2315 30.7981 34.6642C30.0022 36.8819 28.2675 38.6586 26.4994 39.6036C26.006 39.8659 25.4882 40.0792 24.9532 40.2405C21.6118 41.2533 17.5965 40.3638 15.5241 37.8996L15.5106 37.8848L15.4946 37.8639C13.7339 35.7398 13.3495 32.428 13.3126 31.5803C13.3126 31.4719 13.3052 31.3659 13.3052 31.3659C13.278 30.208 13.4446 29.0536 13.798 27.9506C14.1553 26.8097 15.3319 24.4281 17.9747 22.9817C19.623 22.0938 21.5042 21.7338 23.3638 21.9504L23.3034 27.1337C23.1987 27.1066 20.6668 26.5066 19.0047 28.2315C17.4991 29.7938 17.5965 32.3109 18.6647 33.7364C18.7214 33.8128 18.7817 33.8867 18.8446 33.9557C19.4421 34.6223 20.1998 34.8724 20.7111 35.0474C21.3891 35.2707 22.1007 35.375 22.8143 35.3554C23.5787 35.3434 24.3223 35.1046 24.9507 34.6691C26.6879 33.4888 26.922 31.3869 26.9307 31.2674C26.9093 24.5008 26.8892 17.7343 26.8703 10.9677V10.9616L30.1267 10.9036H30.1796L30.6515 10.895C30.9995 12.1472 31.5892 13.3192 32.3875 14.3448C32.639 14.6656 32.9106 14.9701 33.2007 15.2566C34.2965 16.3231 35.6129 17.1365 37.0571 17.6394H37.0669C37.5679 17.8225 38.0814 17.9695 38.6033 18.0792Z" fill="#FD2854"/>
<path d="M37.131 20.3972H37.1211C35.3675 20.6781 33.5723 20.5418 31.8811 19.9992C30.7002 19.6153 29.5917 19.0369 28.6013 18.2879C29.1952 21.8776 29.1952 25.5404 28.6013 29.1301C27.8978 33.3487 27.4567 35.9928 25.1023 37.6844C25.053 37.7201 25.0025 37.7559 24.9519 37.7891C21.7005 39.9908 17.1578 38.898 15.4933 37.8618L15.4687 37.847L15.4219 37.8175C14.8732 37.454 14.3586 37.0416 13.8842 36.5854C13.034 35.7606 12.3555 34.7755 11.8879 33.6871C11.4203 32.5987 11.173 31.4284 11.1601 30.2439C11.1285 29.017 11.3322 27.7953 11.7601 26.645C12.0374 25.9058 13.0674 23.2765 15.9369 21.6761C17.7743 20.6686 19.8975 20.3092 21.9642 20.6559C21.956 21.0666 21.9482 21.4773 21.9408 21.888V21.8966L21.8927 24.4963C20.9934 24.2844 20.0637 24.2326 19.1464 24.3435C18.4072 24.4347 17.6827 24.5197 16.9127 25.0039C15.9265 25.6387 15.2284 26.6349 14.9685 27.7785C14.8039 28.3325 14.7702 28.917 14.8699 29.4862C14.8995 29.6488 15.1163 30.7786 16.028 31.5893C16.3348 31.8616 16.4654 31.8727 16.9127 32.2904C17.3069 32.66 17.4055 32.8374 17.7665 33.1442C17.7665 33.1442 17.8552 33.2194 18.0006 33.3253C18.0099 33.3334 18.0198 33.3408 18.0302 33.3475C18.229 33.4929 18.4377 33.6242 18.6548 33.7405C19.5579 34.2137 21.1744 34.2642 22.3597 33.6888C23.9996 32.8916 24.894 31.0583 24.8903 29.9692C24.8706 23.2001 24.8505 16.4315 24.83 9.66336H24.9433L29.9726 9.63379C29.969 10.0261 30.0234 10.4168 30.134 10.7932C30.1464 10.8338 30.1587 10.872 30.1722 10.9164C30.1858 10.9607 30.1944 10.9817 30.2055 11.0125C30.2835 11.2172 30.3736 11.4172 30.4753 11.6113L30.5456 11.753V11.764C30.5444 11.7672 30.5444 11.7707 30.5456 11.7739L30.5566 11.7973L30.5677 11.8195C30.5744 11.8338 30.5818 11.8478 30.5899 11.8614C30.5973 11.8774 30.6059 11.8934 30.6146 11.9094C30.6614 11.9994 30.7254 12.1176 30.7981 12.2507C30.8437 12.3333 30.8918 12.4158 30.9411 12.4971L30.994 12.5846C31.0199 12.629 31.047 12.6733 31.0741 12.7164L31.1727 12.8729C31.5559 13.4779 32.2286 14.4968 33.1822 15.2668C34.5227 16.3486 36.0628 16.6541 37.0287 16.7453C37.0349 17.0484 37.0423 17.3515 37.0484 17.6546C37.0846 18.5696 37.1121 19.4838 37.131 20.3972Z" fill="#24F6FA"/>
<path d="M37.147 21.8446C34.6083 21.9377 32.1157 21.1483 30.0934 19.6108V30.453C30.0687 30.8683 29.7053 35.4479 25.568 37.9687C25.3635 38.0919 25.1577 38.2065 24.9519 38.3124C21.0598 40.2985 17.2564 38.7424 16.8806 38.581C16.507 38.4589 16.1489 38.2935 15.8137 38.0882C15.7089 38.0229 15.6067 37.9551 15.5093 37.8849L15.4219 37.8196C12.8838 35.8927 12.7791 31.9673 12.763 31.3882C12.7359 30.2303 12.9025 29.0759 13.2559 27.9729C13.6748 26.6361 14.9253 24.3826 17.4326 23.0039C18.8161 22.251 20.3708 21.869 21.9457 21.8951V21.9037C21.9252 23.2056 21.9046 24.5079 21.8841 25.8106C21.6192 25.7391 19.9953 25.3301 18.4084 26.3293C17.4222 26.9641 16.7242 27.9603 16.4642 29.1039C16.3086 29.659 16.275 30.2411 16.3656 30.8104C16.5063 31.5132 16.838 32.1638 17.3242 32.6905C17.5286 32.9259 17.7569 33.1394 18.0055 33.3275C18.0148 33.3355 18.0247 33.343 18.0351 33.3497C18.2303 33.5003 18.4395 33.6319 18.6597 33.7427L18.6671 33.7488C19.1074 34.4137 19.7425 34.9261 20.4854 35.2159C21.2283 35.5058 22.0426 35.5588 22.8168 35.3678C23.1775 35.2925 23.5278 35.1742 23.8603 35.0154C24.2631 34.8239 24.6321 34.5684 24.9532 34.2589C26.2 33.0601 26.3824 31.4017 26.391 31.3019L26.3368 10.9863L26.8789 10.9752L30.1353 10.9111H30.1821C30.1944 10.9432 30.208 10.9752 30.2215 11.0072C30.2967 11.1883 30.3866 11.3892 30.4913 11.606L30.5616 11.7477V11.7588C30.5604 11.762 30.5604 11.7655 30.5616 11.7687L30.5727 11.7921L30.5837 11.8142C30.5904 11.8286 30.5978 11.8426 30.6059 11.8561C30.6133 11.8722 30.6219 11.8882 30.6306 11.9042C30.6872 12.0151 30.7538 12.1297 30.8141 12.2455C30.8597 12.328 30.9078 12.4106 30.9571 12.4919L31.01 12.5794L31.0901 12.7112L31.1887 12.8677C31.7523 13.7491 32.4277 14.5538 33.1982 15.2616C34.3226 16.291 35.6309 17.0994 37.0546 17.6444H37.0645C37.0805 18.5574 37.0965 19.4728 37.1113 20.3858L37.147 21.8446Z" fill="white"/>
<path opacity="0.17" d="M38.6033 18.0797L38.5725 23.2014C37.5744 23.1892 36.5815 23.056 35.6155 22.8047C34.1253 22.4153 32.7197 21.7541 31.4696 20.8543C31.4696 21.3779 31.477 22.159 31.477 23.109C31.477 24.3731 31.477 25.0914 31.4696 25.854C31.4474 30.5655 31.5645 31.4772 31.1505 33.3401C31.0644 33.7894 30.9466 34.2319 30.7981 34.6646C30.0022 36.8823 28.2675 38.659 26.4994 39.604C26.006 39.8663 25.4882 40.0796 24.9532 40.241V9.66336L29.9825 9.63379C29.9789 10.0261 30.0333 10.4168 30.1439 10.7932C30.1562 10.8338 30.1686 10.872 30.1821 10.9164L30.654 10.9078C31.0019 12.16 31.5917 13.3319 32.39 14.3576C32.6415 14.6783 32.9131 14.9829 33.2031 15.2693C34.5436 16.3511 36.0837 16.6566 37.0497 16.7478C37.0558 17.0509 37.0632 17.354 37.0694 17.6571C37.57 17.8342 38.0826 17.9754 38.6033 18.0797Z" fill="black"/>
</g>
<defs>
<clipPath id="clip0_2458_7063">
<rect width="50" height="50" fill="white"/>
</clipPath>
</defs>
</svg>
