<svg width="50" height="50" viewBox="0 0 50 50" fill="none" xmlns="http://www.w3.org/2000/svg">
<path d="M25 50C38.8071 50 50 38.8071 50 25C50 11.1929 38.8071 0 25 0C11.1929 0 0 11.1929 0 25C0 38.8071 11.1929 50 25 50Z" fill="#03A9F4"/>
<path d="M41.1941 14.9574C39.976 15.4893 38.6875 15.8428 37.3684 16.0067C38.7589 15.1821 39.7984 13.8758 40.2895 12.3356C38.988 13.1081 37.564 13.6522 36.079 13.9442C35.169 12.971 33.9872 12.2942 32.6873 12.0017C31.3874 11.7093 30.0297 11.8148 28.7905 12.3044C27.5514 12.7941 26.4884 13.6453 25.7396 14.7474C24.9908 15.8494 24.591 17.1513 24.5921 18.4837C24.5874 18.9922 24.6393 19.4997 24.7467 19.9968C22.1052 19.8671 19.5207 19.1815 17.1622 17.985C14.8036 16.7884 12.724 15.1077 11.0592 13.0528C10.2035 14.5146 9.93838 16.2481 10.3181 17.8989C10.6978 19.5497 11.6936 20.9932 13.102 21.9343C12.0507 21.906 11.0218 21.6251 10.102 21.1153V21.1876C10.1049 22.7199 10.6353 24.2045 11.604 25.3919C12.5727 26.5792 13.9205 27.3968 15.4211 27.7074C14.8532 27.8566 14.268 27.9296 13.6809 27.9245C13.2582 27.9323 12.8358 27.8948 12.4211 27.8126C12.851 29.1305 13.6786 30.2827 14.7901 31.1109C15.9017 31.9392 17.2426 32.4026 18.6283 32.4376C16.28 34.2731 13.3851 35.2701 10.4046 35.2699C9.87355 35.2744 9.34278 35.2436 8.8158 35.1778C11.8548 37.1372 15.3972 38.1725 19.0132 38.158C31.2336 38.158 37.9145 28.0363 37.9145 19.2633C37.9145 18.9705 37.9145 18.6876 37.8915 18.4047C39.1926 17.4657 40.3117 16.2975 41.1941 14.9574Z" fill="white"/>
</svg>
