<svg width="30" height="30" viewBox="0 0 30 30" fill="none" xmlns="http://www.w3.org/2000/svg">
<path d="M15 0C6.72865 0 0 6.72865 0 15C0 17.8217 0.784038 20.561 2.27135 22.9396C1.67885 25.0154 0.608654 28.9419 0.597115 28.9829C0.541731 29.186 0.601154 29.4029 0.752885 29.5488C0.904615 29.6948 1.12385 29.7467 1.32346 29.6856L7.26923 27.8567C9.59827 29.2598 12.2654 30 15 30C23.2713 30 30 23.2713 30 15C30 6.72865 23.2713 0 15 0ZM15 28.8462C12.3929 28.8462 9.85327 28.1175 7.65519 26.7398C7.56231 26.6815 7.45558 26.6521 7.34885 26.6521C7.29173 26.6521 7.23462 26.6608 7.17923 26.6775L1.9875 28.2756C2.36885 26.8835 3.05423 24.3935 3.45173 23.0083C3.49788 22.8479 3.47192 22.6748 3.38135 22.5346C1.92404 20.2921 1.15385 17.6867 1.15385 15C1.15385 7.36558 7.36558 1.15385 15 1.15385C22.6344 1.15385 28.8462 7.36558 28.8462 15C28.8462 22.6344 22.6344 28.8462 15 28.8462Z" fill="#FF0032"/>
<path d="M24.7996 18.5341C23.7346 17.9428 22.8277 17.3497 22.1659 16.917C21.6606 16.587 21.2954 16.3487 21.0277 16.2143C20.2794 15.841 19.7123 16.1047 19.4965 16.3228C19.4694 16.3499 19.4452 16.3793 19.4244 16.4105C18.6473 17.5764 17.6325 18.6916 17.3354 18.7516C16.9921 18.698 15.3854 17.7847 13.7884 16.4549C12.1581 15.0962 11.1323 13.7953 10.9817 12.9091C12.0277 11.8326 12.4044 11.1553 12.4044 10.3845C12.4044 9.59007 10.5513 6.27334 10.2161 5.93815C9.87979 5.60238 9.12229 5.54988 7.96441 5.78065C7.85306 5.80315 7.75037 5.85796 7.6696 5.93815C7.52941 6.07834 4.24902 9.42276 5.80787 13.4762C7.51902 17.9249 11.9111 23.0958 17.5108 23.9358C18.1471 24.031 18.7436 24.0783 19.3021 24.0783C22.5963 24.0783 24.5406 22.4208 25.0881 19.133C25.129 18.8924 25.0131 18.6524 24.7996 18.5341ZM17.6821 22.7947C11.7606 21.9068 8.03076 16.0401 6.88499 13.062C5.74845 10.1081 7.84441 7.47449 8.37056 6.87911C8.79864 6.80642 9.24922 6.77584 9.43729 6.80526C9.83018 7.35161 11.1906 9.9218 11.2506 10.3845C11.2506 10.6874 11.1519 11.1091 9.97729 12.2843C9.86883 12.3922 9.80826 12.5387 9.80826 12.6922C9.80826 15.713 16.1798 19.9037 17.3083 19.9037C18.2896 19.9037 19.5692 18.2543 20.2979 17.1795C20.34 17.1812 20.411 17.1956 20.5119 17.2464C20.7196 17.3508 21.0796 17.5856 21.5348 17.8833C22.136 18.2762 22.9344 18.7978 23.8771 19.3383C23.449 21.398 22.2525 23.4812 17.6821 22.7947Z" fill="#FF0032"/>
</svg>
