<svg width="50" height="50" viewBox="0 0 50 50" fill="none" xmlns="http://www.w3.org/2000/svg">
<path d="M25 50C38.8071 50 50 38.8071 50 25C50 11.1929 38.8071 0 25 0C11.1929 0 0 11.1929 0 25C0 38.8071 11.1929 50 25 50Z" fill="#FF0000"/>
<path d="M33.1809 15.5952H16.8191C16.1652 15.5952 15.5178 15.7241 14.9137 15.9744C14.3097 16.2247 13.7609 16.5916 13.2987 17.0541C12.8365 17.5166 12.4699 18.0656 12.22 18.6699C11.9701 19.2741 11.8417 19.9216 11.8421 20.5755V29.4242C11.8417 30.078 11.9701 30.7256 12.22 31.3298C12.4699 31.934 12.8365 32.483 13.2987 32.9455C13.7609 33.408 14.3097 33.7749 14.9137 34.0253C15.5178 34.2756 16.1652 34.4044 16.8191 34.4044H33.1809C33.8348 34.4044 34.4822 34.2756 35.0863 34.0253C35.6903 33.7749 36.2391 33.408 36.7013 32.9455C37.1635 32.483 37.5301 31.934 37.78 31.3298C38.0299 30.7256 38.1583 30.078 38.1579 29.4242V20.5755C38.1583 19.9216 38.0299 19.2741 37.78 18.6699C37.5301 18.0656 37.1635 17.5166 36.7013 17.0541C36.2391 16.5916 35.6903 16.2247 35.0863 15.9744C34.4822 15.7241 33.8348 15.5952 33.1809 15.5952ZM21.5329 29.0327V20.9669L28.4671 24.9998L21.5329 29.0327Z" fill="white"/>
</svg>
